G04 EAGLE Gerber RS-274X export*
G75*
%MOMM*%
%FSLAX34Y34*%
%LPD*%
%INTop Copper*%
%IPPOS*%
%AMOC8*
5,1,8,0,0,1.08239X$1,22.5*%
G01*
%ADD10P,3.409096X8X22.500000*%
%ADD11P,3.409096X8X112.500000*%
%ADD12C,1.320800*%
%ADD13P,1.429621X8X22.500000*%
%ADD14P,1.429621X8X112.500000*%
%ADD15C,1.422400*%
%ADD16C,0.152400*%


D10*
X38100Y342900D03*
X292100Y342900D03*
D11*
X419100Y50800D03*
X419100Y304800D03*
D12*
X241300Y171704D02*
X241300Y158496D01*
X266700Y158496D02*
X266700Y171704D01*
X266700Y234696D02*
X266700Y247904D01*
X241300Y247904D02*
X241300Y234696D01*
X292100Y171704D02*
X292100Y158496D01*
X317500Y158496D02*
X317500Y171704D01*
X292100Y234696D02*
X292100Y247904D01*
X317500Y247904D02*
X317500Y234696D01*
D13*
X50800Y139700D03*
X76200Y139700D03*
X50800Y63500D03*
X76200Y63500D03*
D14*
X114300Y215900D03*
X114300Y241300D03*
X190500Y139700D03*
X190500Y165100D03*
D13*
X215900Y63500D03*
X241300Y63500D03*
X152400Y63500D03*
X177800Y63500D03*
D15*
X292100Y57912D02*
X292100Y43688D01*
X317500Y43688D02*
X317500Y57912D01*
D16*
X215900Y63500D02*
X177800Y63500D01*
X292100Y342900D02*
X381000Y342900D01*
X419100Y304800D01*
X254000Y88900D02*
X292100Y50800D01*
X254000Y152400D02*
X241300Y165100D01*
X254000Y152400D02*
X254000Y88900D01*
X241300Y165100D02*
X279400Y203200D01*
X279400Y330200D02*
X292100Y342900D01*
X279400Y330200D02*
X279400Y203200D01*
X317500Y127000D02*
X317500Y50800D01*
X317500Y127000D02*
X330200Y139700D01*
X330200Y152400D01*
X317500Y165100D01*
X76200Y165100D02*
X50800Y139700D01*
X76200Y165100D02*
X190500Y165100D01*
X114300Y241300D02*
X139700Y266700D01*
X241300Y266700D01*
X266700Y241300D01*
X203200Y152400D02*
X190500Y139700D01*
X203200Y152400D02*
X203200Y190500D01*
X152400Y241300D01*
X114300Y241300D01*
X38100Y292100D02*
X38100Y342900D01*
X38100Y292100D02*
X114300Y215900D01*
X266700Y177800D02*
X266700Y165100D01*
X266700Y177800D02*
X292100Y203200D01*
X292100Y241300D01*
X63500Y50800D02*
X50800Y63500D01*
X139700Y50800D02*
X152400Y63500D01*
X139700Y50800D02*
X63500Y50800D01*
X203200Y101600D02*
X241300Y63500D01*
X114300Y101600D02*
X76200Y139700D01*
X114300Y101600D02*
X203200Y101600D01*
X368300Y101600D02*
X419100Y50800D01*
X368300Y101600D02*
X368300Y215900D01*
X342900Y241300D01*
X317500Y241300D01*
M02*
