G04 EAGLE Gerber RS-274X export*
G75*
%MOMM*%
%FSLAX34Y34*%
%LPD*%
%INSilkscreen Top*%
%IPPOS*%
%AMOC8*
5,1,8,0,0,1.08239X$1,22.5*%
G01*
%ADD10C,0.152400*%
%ADD11C,0.304800*%
%ADD12C,0.254000*%
%ADD13C,0.127000*%
%ADD14R,0.508000X3.048000*%
%ADD15R,0.889000X0.762000*%
%ADD16C,0.177800*%
%ADD17R,3.048000X0.508000*%
%ADD18R,0.762000X0.889000*%
%ADD19C,0.203200*%
%ADD20C,0.508000*%


D10*
X88900Y393700D02*
X262890Y393700D01*
X63500Y389890D02*
X63500Y295910D01*
X63500Y389890D02*
X67310Y393700D01*
X72390Y393700D01*
X76200Y389890D01*
X85090Y389890D01*
X88900Y393700D01*
X76200Y389890D02*
X76200Y386080D01*
X85090Y386080D02*
X85090Y389890D01*
X76200Y389890D02*
X63500Y389890D01*
X76200Y386080D02*
X85090Y386080D01*
X85090Y389890D02*
X266700Y389890D01*
D11*
X262890Y392430D02*
X88900Y392430D01*
X87630Y391160D02*
X264160Y391160D01*
X72390Y392430D02*
X67310Y392430D01*
X66040Y391160D02*
X73660Y391160D01*
X77470Y388620D02*
X83820Y388620D01*
X83820Y387350D02*
X77470Y387350D01*
D10*
X63500Y295910D02*
X64770Y294640D01*
X67310Y292100D02*
X72390Y292100D01*
X74930Y294640D02*
X76200Y295910D01*
X76200Y298450D01*
X76200Y295910D02*
X85090Y295910D01*
X86360Y294640D02*
X88900Y292100D01*
X262890Y292100D01*
X85090Y298450D02*
X85090Y386080D01*
X74930Y294640D02*
X64770Y294640D01*
X67310Y292100D01*
X72390Y292100D02*
X74930Y294640D01*
X86360Y294640D02*
X265430Y294640D01*
X86360Y294640D02*
X85090Y295910D01*
D12*
X72390Y293370D02*
X67310Y293370D01*
X77470Y297180D02*
X83820Y297180D01*
X88900Y293370D02*
X262890Y293370D01*
D10*
X85090Y298450D02*
X76200Y298450D01*
X76200Y386080D01*
X85090Y298450D02*
X85090Y295910D01*
X262890Y292100D02*
X265430Y294640D01*
X266700Y295910D01*
X266700Y389890D02*
X262890Y393700D01*
X266700Y389890D02*
X266700Y295910D01*
X261620Y342900D02*
X128270Y342900D01*
X114300Y342900D02*
X90170Y342900D01*
D13*
X91934Y307721D02*
X89535Y305802D01*
X91934Y307721D02*
X91934Y299085D01*
X89535Y299085D02*
X94333Y299085D01*
X98450Y303403D02*
X98452Y303573D01*
X98458Y303743D01*
X98468Y303912D01*
X98482Y304082D01*
X98501Y304251D01*
X98523Y304419D01*
X98549Y304587D01*
X98579Y304754D01*
X98614Y304920D01*
X98652Y305086D01*
X98694Y305251D01*
X98740Y305414D01*
X98790Y305577D01*
X98844Y305738D01*
X98901Y305898D01*
X98963Y306056D01*
X99028Y306213D01*
X99097Y306368D01*
X99170Y306522D01*
X99198Y306598D01*
X99230Y306673D01*
X99265Y306747D01*
X99303Y306819D01*
X99345Y306889D01*
X99390Y306957D01*
X99438Y307023D01*
X99489Y307087D01*
X99543Y307148D01*
X99599Y307207D01*
X99659Y307263D01*
X99720Y307316D01*
X99784Y307366D01*
X99851Y307414D01*
X99919Y307458D01*
X99990Y307499D01*
X100062Y307537D01*
X100136Y307571D01*
X100211Y307602D01*
X100288Y307630D01*
X100366Y307654D01*
X100445Y307674D01*
X100525Y307691D01*
X100605Y307704D01*
X100686Y307714D01*
X100767Y307719D01*
X100849Y307721D01*
X100931Y307719D01*
X101012Y307714D01*
X101093Y307704D01*
X101173Y307691D01*
X101253Y307674D01*
X101332Y307654D01*
X101410Y307630D01*
X101487Y307602D01*
X101562Y307571D01*
X101636Y307537D01*
X101708Y307499D01*
X101779Y307458D01*
X101847Y307414D01*
X101914Y307366D01*
X101978Y307316D01*
X102039Y307263D01*
X102099Y307207D01*
X102155Y307148D01*
X102209Y307087D01*
X102260Y307023D01*
X102308Y306957D01*
X102353Y306889D01*
X102395Y306819D01*
X102433Y306747D01*
X102468Y306673D01*
X102500Y306598D01*
X102528Y306522D01*
X102529Y306522D02*
X102602Y306368D01*
X102671Y306213D01*
X102736Y306056D01*
X102798Y305898D01*
X102855Y305738D01*
X102909Y305577D01*
X102959Y305414D01*
X103005Y305251D01*
X103047Y305086D01*
X103085Y304920D01*
X103120Y304754D01*
X103150Y304587D01*
X103176Y304419D01*
X103198Y304251D01*
X103217Y304082D01*
X103231Y303912D01*
X103241Y303743D01*
X103247Y303573D01*
X103249Y303403D01*
X98450Y303403D02*
X98452Y303233D01*
X98458Y303063D01*
X98468Y302894D01*
X98482Y302724D01*
X98501Y302555D01*
X98523Y302387D01*
X98549Y302219D01*
X98579Y302052D01*
X98614Y301886D01*
X98652Y301720D01*
X98694Y301555D01*
X98740Y301392D01*
X98790Y301230D01*
X98844Y301068D01*
X98901Y300909D01*
X98963Y300750D01*
X99028Y300593D01*
X99097Y300438D01*
X99170Y300284D01*
X99198Y300208D01*
X99230Y300133D01*
X99265Y300059D01*
X99303Y299987D01*
X99345Y299917D01*
X99390Y299849D01*
X99438Y299783D01*
X99489Y299719D01*
X99543Y299658D01*
X99599Y299599D01*
X99659Y299543D01*
X99720Y299490D01*
X99784Y299440D01*
X99851Y299392D01*
X99919Y299348D01*
X99990Y299307D01*
X100062Y299269D01*
X100136Y299235D01*
X100211Y299204D01*
X100288Y299176D01*
X100366Y299152D01*
X100445Y299132D01*
X100525Y299115D01*
X100605Y299102D01*
X100686Y299092D01*
X100767Y299087D01*
X100849Y299085D01*
X102528Y300284D02*
X102601Y300438D01*
X102670Y300593D01*
X102735Y300750D01*
X102797Y300909D01*
X102854Y301068D01*
X102908Y301230D01*
X102958Y301392D01*
X103004Y301555D01*
X103046Y301720D01*
X103084Y301886D01*
X103119Y302052D01*
X103149Y302219D01*
X103175Y302387D01*
X103197Y302555D01*
X103216Y302724D01*
X103230Y302894D01*
X103240Y303063D01*
X103246Y303233D01*
X103248Y303403D01*
X102528Y300284D02*
X102500Y300208D01*
X102468Y300133D01*
X102433Y300059D01*
X102395Y299987D01*
X102353Y299917D01*
X102308Y299849D01*
X102260Y299783D01*
X102209Y299719D01*
X102155Y299658D01*
X102099Y299599D01*
X102039Y299543D01*
X101978Y299490D01*
X101914Y299440D01*
X101847Y299392D01*
X101779Y299348D01*
X101708Y299307D01*
X101636Y299269D01*
X101562Y299235D01*
X101487Y299204D01*
X101410Y299176D01*
X101332Y299152D01*
X101253Y299132D01*
X101173Y299115D01*
X101093Y299102D01*
X101012Y299092D01*
X100931Y299087D01*
X100849Y299085D01*
X98930Y301004D02*
X102768Y305802D01*
X106954Y299085D02*
X110792Y304842D01*
X106954Y304842D02*
X110792Y299085D01*
X119296Y305562D02*
X119294Y305654D01*
X119288Y305745D01*
X119279Y305836D01*
X119265Y305927D01*
X119248Y306017D01*
X119226Y306106D01*
X119201Y306194D01*
X119173Y306281D01*
X119140Y306367D01*
X119104Y306451D01*
X119065Y306534D01*
X119022Y306615D01*
X118975Y306694D01*
X118926Y306771D01*
X118873Y306846D01*
X118817Y306918D01*
X118758Y306988D01*
X118696Y307056D01*
X118631Y307121D01*
X118563Y307183D01*
X118493Y307242D01*
X118421Y307298D01*
X118346Y307351D01*
X118269Y307400D01*
X118190Y307447D01*
X118109Y307490D01*
X118026Y307529D01*
X117942Y307565D01*
X117856Y307598D01*
X117769Y307626D01*
X117681Y307651D01*
X117592Y307673D01*
X117502Y307690D01*
X117411Y307704D01*
X117320Y307713D01*
X117229Y307719D01*
X117137Y307721D01*
X117034Y307719D01*
X116932Y307713D01*
X116830Y307704D01*
X116728Y307691D01*
X116627Y307674D01*
X116526Y307653D01*
X116427Y307629D01*
X116328Y307600D01*
X116231Y307569D01*
X116134Y307533D01*
X116039Y307495D01*
X115946Y307452D01*
X115854Y307406D01*
X115764Y307357D01*
X115676Y307305D01*
X115589Y307249D01*
X115505Y307190D01*
X115424Y307129D01*
X115344Y307064D01*
X115267Y306996D01*
X115192Y306925D01*
X115121Y306852D01*
X115052Y306776D01*
X114985Y306698D01*
X114922Y306617D01*
X114862Y306534D01*
X114805Y306449D01*
X114751Y306362D01*
X114700Y306272D01*
X114653Y306181D01*
X114609Y306089D01*
X114568Y305994D01*
X114531Y305899D01*
X114498Y305802D01*
X118576Y303883D02*
X118643Y303949D01*
X118707Y304018D01*
X118768Y304089D01*
X118826Y304163D01*
X118881Y304239D01*
X118933Y304317D01*
X118982Y304397D01*
X119028Y304479D01*
X119070Y304563D01*
X119109Y304649D01*
X119144Y304736D01*
X119175Y304824D01*
X119203Y304914D01*
X119228Y305004D01*
X119249Y305096D01*
X119266Y305188D01*
X119279Y305281D01*
X119288Y305374D01*
X119294Y305468D01*
X119296Y305562D01*
X118576Y303883D02*
X114498Y299085D01*
X119296Y299085D01*
X123413Y303403D02*
X123415Y303573D01*
X123421Y303743D01*
X123431Y303912D01*
X123445Y304082D01*
X123464Y304251D01*
X123486Y304419D01*
X123512Y304587D01*
X123542Y304754D01*
X123577Y304920D01*
X123615Y305086D01*
X123657Y305251D01*
X123703Y305414D01*
X123753Y305577D01*
X123807Y305738D01*
X123864Y305898D01*
X123926Y306056D01*
X123991Y306213D01*
X124060Y306368D01*
X124133Y306522D01*
X124161Y306598D01*
X124193Y306673D01*
X124228Y306747D01*
X124266Y306819D01*
X124308Y306889D01*
X124353Y306957D01*
X124401Y307023D01*
X124452Y307087D01*
X124506Y307148D01*
X124562Y307207D01*
X124622Y307263D01*
X124683Y307316D01*
X124747Y307366D01*
X124814Y307414D01*
X124882Y307458D01*
X124953Y307499D01*
X125025Y307537D01*
X125099Y307571D01*
X125174Y307602D01*
X125251Y307630D01*
X125329Y307654D01*
X125408Y307674D01*
X125488Y307691D01*
X125568Y307704D01*
X125649Y307714D01*
X125730Y307719D01*
X125812Y307721D01*
X125894Y307719D01*
X125975Y307714D01*
X126056Y307704D01*
X126136Y307691D01*
X126216Y307674D01*
X126295Y307654D01*
X126373Y307630D01*
X126450Y307602D01*
X126525Y307571D01*
X126599Y307537D01*
X126671Y307499D01*
X126742Y307458D01*
X126810Y307414D01*
X126877Y307366D01*
X126941Y307316D01*
X127002Y307263D01*
X127062Y307207D01*
X127118Y307148D01*
X127172Y307087D01*
X127223Y307023D01*
X127271Y306957D01*
X127316Y306889D01*
X127358Y306819D01*
X127396Y306747D01*
X127431Y306673D01*
X127463Y306598D01*
X127491Y306522D01*
X127492Y306522D02*
X127565Y306368D01*
X127634Y306213D01*
X127699Y306056D01*
X127761Y305898D01*
X127818Y305738D01*
X127872Y305577D01*
X127922Y305414D01*
X127968Y305251D01*
X128010Y305086D01*
X128048Y304920D01*
X128083Y304754D01*
X128113Y304587D01*
X128139Y304419D01*
X128161Y304251D01*
X128180Y304082D01*
X128194Y303912D01*
X128204Y303743D01*
X128210Y303573D01*
X128212Y303403D01*
X123413Y303403D02*
X123415Y303233D01*
X123421Y303063D01*
X123431Y302894D01*
X123445Y302724D01*
X123464Y302555D01*
X123486Y302387D01*
X123512Y302219D01*
X123542Y302052D01*
X123577Y301886D01*
X123615Y301720D01*
X123657Y301555D01*
X123703Y301392D01*
X123753Y301230D01*
X123807Y301068D01*
X123864Y300909D01*
X123926Y300750D01*
X123991Y300593D01*
X124060Y300438D01*
X124133Y300284D01*
X124161Y300208D01*
X124193Y300133D01*
X124228Y300059D01*
X124266Y299987D01*
X124308Y299917D01*
X124353Y299849D01*
X124401Y299783D01*
X124452Y299719D01*
X124506Y299658D01*
X124562Y299599D01*
X124622Y299543D01*
X124683Y299490D01*
X124747Y299440D01*
X124814Y299392D01*
X124882Y299348D01*
X124953Y299307D01*
X125025Y299269D01*
X125099Y299235D01*
X125174Y299204D01*
X125251Y299176D01*
X125329Y299152D01*
X125408Y299132D01*
X125488Y299115D01*
X125568Y299102D01*
X125649Y299092D01*
X125730Y299087D01*
X125812Y299085D01*
X127491Y300284D02*
X127564Y300438D01*
X127633Y300593D01*
X127698Y300750D01*
X127760Y300909D01*
X127817Y301068D01*
X127871Y301230D01*
X127921Y301392D01*
X127967Y301555D01*
X128009Y301720D01*
X128047Y301886D01*
X128082Y302052D01*
X128112Y302219D01*
X128138Y302387D01*
X128160Y302555D01*
X128179Y302724D01*
X128193Y302894D01*
X128203Y303063D01*
X128209Y303233D01*
X128211Y303403D01*
X127491Y300284D02*
X127463Y300208D01*
X127431Y300133D01*
X127396Y300059D01*
X127358Y299987D01*
X127316Y299917D01*
X127271Y299849D01*
X127223Y299783D01*
X127172Y299719D01*
X127118Y299658D01*
X127062Y299599D01*
X127002Y299543D01*
X126941Y299490D01*
X126877Y299440D01*
X126810Y299392D01*
X126742Y299348D01*
X126671Y299307D01*
X126599Y299269D01*
X126525Y299235D01*
X126450Y299204D01*
X126373Y299176D01*
X126295Y299152D01*
X126216Y299132D01*
X126136Y299115D01*
X126056Y299102D01*
X125975Y299092D01*
X125894Y299087D01*
X125812Y299085D01*
X123893Y301004D02*
X127731Y305802D01*
D14*
X127000Y342900D03*
D15*
X59055Y342900D03*
X271145Y342900D03*
D14*
X114300Y342900D03*
D16*
X76581Y397129D02*
X73025Y397129D01*
X72909Y397131D01*
X72792Y397137D01*
X72676Y397146D01*
X72561Y397159D01*
X72446Y397176D01*
X72331Y397197D01*
X72218Y397222D01*
X72105Y397250D01*
X71993Y397282D01*
X71882Y397318D01*
X71772Y397357D01*
X71664Y397400D01*
X71557Y397446D01*
X71452Y397496D01*
X71349Y397549D01*
X71247Y397605D01*
X71147Y397665D01*
X71049Y397728D01*
X70954Y397795D01*
X70860Y397864D01*
X70769Y397936D01*
X70680Y398011D01*
X70594Y398090D01*
X70511Y398171D01*
X70430Y398254D01*
X70351Y398340D01*
X70276Y398429D01*
X70204Y398520D01*
X70135Y398614D01*
X70068Y398709D01*
X70005Y398807D01*
X69945Y398907D01*
X69889Y399009D01*
X69836Y399112D01*
X69786Y399217D01*
X69740Y399324D01*
X69697Y399432D01*
X69658Y399542D01*
X69622Y399653D01*
X69590Y399765D01*
X69562Y399878D01*
X69537Y399991D01*
X69516Y400106D01*
X69499Y400221D01*
X69486Y400336D01*
X69477Y400452D01*
X69471Y400569D01*
X69469Y400685D01*
X69469Y409575D01*
X69471Y409691D01*
X69477Y409808D01*
X69486Y409924D01*
X69499Y410039D01*
X69516Y410154D01*
X69537Y410269D01*
X69562Y410382D01*
X69590Y410495D01*
X69622Y410607D01*
X69658Y410718D01*
X69697Y410828D01*
X69740Y410936D01*
X69786Y411043D01*
X69836Y411148D01*
X69889Y411251D01*
X69945Y411353D01*
X70005Y411453D01*
X70068Y411551D01*
X70135Y411646D01*
X70204Y411740D01*
X70276Y411831D01*
X70351Y411920D01*
X70430Y412006D01*
X70511Y412089D01*
X70594Y412170D01*
X70680Y412249D01*
X70769Y412324D01*
X70860Y412396D01*
X70954Y412465D01*
X71049Y412532D01*
X71147Y412595D01*
X71247Y412655D01*
X71349Y412711D01*
X71452Y412764D01*
X71557Y412814D01*
X71664Y412860D01*
X71772Y412903D01*
X71882Y412942D01*
X71993Y412978D01*
X72105Y413010D01*
X72218Y413038D01*
X72331Y413063D01*
X72446Y413084D01*
X72561Y413101D01*
X72676Y413114D01*
X72792Y413123D01*
X72909Y413129D01*
X73025Y413131D01*
X76581Y413131D01*
X82539Y409575D02*
X86984Y413131D01*
X86984Y397129D01*
X82539Y397129D02*
X91429Y397129D01*
D10*
X368300Y275590D02*
X368300Y101600D01*
X372110Y76200D02*
X466090Y76200D01*
X372110Y76200D02*
X368300Y80010D01*
X368300Y85090D01*
X372110Y88900D01*
X372110Y97790D01*
X368300Y101600D01*
X372110Y88900D02*
X375920Y88900D01*
X375920Y97790D02*
X372110Y97790D01*
X372110Y88900D02*
X372110Y76200D01*
X375920Y88900D02*
X375920Y97790D01*
X372110Y97790D02*
X372110Y279400D01*
D11*
X369570Y275590D02*
X369570Y101600D01*
X370840Y100330D02*
X370840Y276860D01*
X369570Y85090D02*
X369570Y80010D01*
X370840Y78740D02*
X370840Y86360D01*
X373380Y90170D02*
X373380Y96520D01*
X374650Y96520D02*
X374650Y90170D01*
D10*
X466090Y76200D02*
X467360Y77470D01*
X469900Y80010D02*
X469900Y85090D01*
X467360Y87630D02*
X466090Y88900D01*
X463550Y88900D01*
X466090Y88900D02*
X466090Y97790D01*
X467360Y99060D02*
X469900Y101600D01*
X469900Y275590D01*
X463550Y97790D02*
X375920Y97790D01*
X467360Y87630D02*
X467360Y77470D01*
X469900Y80010D01*
X469900Y85090D02*
X467360Y87630D01*
X467360Y99060D02*
X467360Y278130D01*
X467360Y99060D02*
X466090Y97790D01*
D12*
X468630Y85090D02*
X468630Y80010D01*
X464820Y90170D02*
X464820Y96520D01*
X468630Y101600D02*
X468630Y275590D01*
D10*
X463550Y97790D02*
X463550Y88900D01*
X375920Y88900D01*
X463550Y97790D02*
X466090Y97790D01*
X469900Y275590D02*
X467360Y278130D01*
X466090Y279400D01*
X372110Y279400D02*
X368300Y275590D01*
X372110Y279400D02*
X466090Y279400D01*
X419100Y274320D02*
X419100Y140970D01*
X419100Y127000D02*
X419100Y102870D01*
D13*
X454279Y104634D02*
X456198Y102235D01*
X454279Y104634D02*
X462915Y104634D01*
X462915Y102235D02*
X462915Y107033D01*
X458597Y111150D02*
X458427Y111152D01*
X458257Y111158D01*
X458088Y111168D01*
X457918Y111182D01*
X457749Y111201D01*
X457581Y111223D01*
X457413Y111249D01*
X457246Y111279D01*
X457080Y111314D01*
X456914Y111352D01*
X456749Y111394D01*
X456586Y111440D01*
X456424Y111490D01*
X456262Y111544D01*
X456103Y111601D01*
X455944Y111663D01*
X455787Y111728D01*
X455632Y111797D01*
X455478Y111870D01*
X455402Y111898D01*
X455327Y111930D01*
X455253Y111965D01*
X455181Y112003D01*
X455111Y112045D01*
X455043Y112090D01*
X454977Y112138D01*
X454913Y112189D01*
X454852Y112243D01*
X454793Y112299D01*
X454737Y112359D01*
X454684Y112420D01*
X454634Y112484D01*
X454586Y112551D01*
X454542Y112619D01*
X454501Y112690D01*
X454463Y112762D01*
X454429Y112836D01*
X454398Y112911D01*
X454370Y112988D01*
X454346Y113066D01*
X454326Y113145D01*
X454309Y113225D01*
X454296Y113305D01*
X454286Y113386D01*
X454281Y113467D01*
X454279Y113549D01*
X454281Y113631D01*
X454286Y113712D01*
X454296Y113793D01*
X454309Y113873D01*
X454326Y113953D01*
X454346Y114032D01*
X454370Y114110D01*
X454398Y114187D01*
X454429Y114262D01*
X454463Y114336D01*
X454501Y114408D01*
X454542Y114479D01*
X454586Y114547D01*
X454634Y114614D01*
X454684Y114678D01*
X454737Y114739D01*
X454793Y114799D01*
X454852Y114855D01*
X454913Y114909D01*
X454977Y114960D01*
X455043Y115008D01*
X455111Y115053D01*
X455181Y115095D01*
X455253Y115133D01*
X455327Y115168D01*
X455402Y115200D01*
X455478Y115228D01*
X455632Y115301D01*
X455787Y115370D01*
X455944Y115435D01*
X456103Y115497D01*
X456262Y115554D01*
X456424Y115608D01*
X456586Y115658D01*
X456749Y115704D01*
X456914Y115746D01*
X457080Y115784D01*
X457246Y115819D01*
X457413Y115849D01*
X457581Y115875D01*
X457749Y115897D01*
X457918Y115916D01*
X458088Y115930D01*
X458257Y115940D01*
X458427Y115946D01*
X458597Y115948D01*
X458597Y111150D02*
X458767Y111152D01*
X458937Y111158D01*
X459106Y111168D01*
X459276Y111182D01*
X459445Y111201D01*
X459613Y111223D01*
X459781Y111249D01*
X459948Y111279D01*
X460114Y111314D01*
X460280Y111352D01*
X460445Y111394D01*
X460608Y111440D01*
X460770Y111490D01*
X460932Y111544D01*
X461091Y111601D01*
X461250Y111663D01*
X461407Y111728D01*
X461562Y111797D01*
X461716Y111870D01*
X461792Y111898D01*
X461867Y111930D01*
X461941Y111965D01*
X462013Y112003D01*
X462083Y112045D01*
X462151Y112090D01*
X462217Y112138D01*
X462281Y112189D01*
X462342Y112243D01*
X462401Y112299D01*
X462457Y112359D01*
X462510Y112420D01*
X462560Y112484D01*
X462608Y112551D01*
X462652Y112619D01*
X462693Y112690D01*
X462731Y112762D01*
X462765Y112836D01*
X462796Y112911D01*
X462824Y112988D01*
X462848Y113066D01*
X462868Y113145D01*
X462885Y113225D01*
X462898Y113305D01*
X462908Y113386D01*
X462913Y113467D01*
X462915Y113549D01*
X461716Y115228D02*
X461562Y115301D01*
X461407Y115370D01*
X461250Y115435D01*
X461091Y115497D01*
X460932Y115554D01*
X460770Y115608D01*
X460608Y115658D01*
X460445Y115704D01*
X460280Y115746D01*
X460114Y115784D01*
X459948Y115819D01*
X459781Y115849D01*
X459613Y115875D01*
X459445Y115897D01*
X459276Y115916D01*
X459106Y115930D01*
X458937Y115940D01*
X458767Y115946D01*
X458597Y115948D01*
X461716Y115228D02*
X461792Y115200D01*
X461867Y115168D01*
X461941Y115133D01*
X462013Y115095D01*
X462083Y115053D01*
X462151Y115008D01*
X462217Y114960D01*
X462281Y114909D01*
X462342Y114855D01*
X462401Y114799D01*
X462457Y114739D01*
X462510Y114678D01*
X462560Y114614D01*
X462608Y114547D01*
X462652Y114479D01*
X462693Y114408D01*
X462731Y114336D01*
X462765Y114262D01*
X462796Y114187D01*
X462824Y114110D01*
X462848Y114032D01*
X462868Y113953D01*
X462885Y113873D01*
X462898Y113793D01*
X462908Y113712D01*
X462913Y113631D01*
X462915Y113549D01*
X460996Y111630D02*
X456198Y115468D01*
X462915Y119654D02*
X457158Y123492D01*
X457158Y119654D02*
X462915Y123492D01*
X456438Y131996D02*
X456346Y131994D01*
X456255Y131988D01*
X456164Y131979D01*
X456073Y131965D01*
X455983Y131948D01*
X455894Y131926D01*
X455806Y131901D01*
X455719Y131873D01*
X455633Y131840D01*
X455549Y131804D01*
X455466Y131765D01*
X455385Y131722D01*
X455306Y131675D01*
X455229Y131626D01*
X455154Y131573D01*
X455082Y131517D01*
X455012Y131458D01*
X454944Y131396D01*
X454879Y131331D01*
X454817Y131263D01*
X454758Y131193D01*
X454702Y131121D01*
X454649Y131046D01*
X454600Y130969D01*
X454553Y130890D01*
X454510Y130809D01*
X454471Y130726D01*
X454435Y130642D01*
X454402Y130556D01*
X454374Y130469D01*
X454349Y130381D01*
X454327Y130292D01*
X454310Y130202D01*
X454296Y130111D01*
X454287Y130020D01*
X454281Y129929D01*
X454279Y129837D01*
X454281Y129734D01*
X454287Y129632D01*
X454296Y129530D01*
X454309Y129428D01*
X454326Y129327D01*
X454347Y129226D01*
X454371Y129127D01*
X454400Y129028D01*
X454431Y128931D01*
X454467Y128834D01*
X454505Y128739D01*
X454548Y128646D01*
X454594Y128554D01*
X454643Y128464D01*
X454695Y128376D01*
X454751Y128289D01*
X454810Y128205D01*
X454871Y128124D01*
X454936Y128044D01*
X455004Y127967D01*
X455075Y127892D01*
X455148Y127821D01*
X455224Y127752D01*
X455302Y127685D01*
X455383Y127622D01*
X455466Y127562D01*
X455551Y127505D01*
X455638Y127451D01*
X455728Y127400D01*
X455819Y127353D01*
X455911Y127309D01*
X456006Y127268D01*
X456101Y127231D01*
X456198Y127198D01*
X458117Y131276D02*
X458051Y131343D01*
X457982Y131407D01*
X457911Y131468D01*
X457837Y131526D01*
X457761Y131581D01*
X457683Y131633D01*
X457603Y131682D01*
X457521Y131728D01*
X457437Y131770D01*
X457351Y131809D01*
X457264Y131844D01*
X457176Y131875D01*
X457086Y131903D01*
X456996Y131928D01*
X456904Y131949D01*
X456812Y131966D01*
X456719Y131979D01*
X456626Y131988D01*
X456532Y131994D01*
X456438Y131996D01*
X458117Y131276D02*
X462915Y127198D01*
X462915Y131996D01*
X458597Y136113D02*
X458427Y136115D01*
X458257Y136121D01*
X458088Y136131D01*
X457918Y136145D01*
X457749Y136164D01*
X457581Y136186D01*
X457413Y136212D01*
X457246Y136242D01*
X457080Y136277D01*
X456914Y136315D01*
X456749Y136357D01*
X456586Y136403D01*
X456424Y136453D01*
X456262Y136507D01*
X456103Y136564D01*
X455944Y136626D01*
X455787Y136691D01*
X455632Y136760D01*
X455478Y136833D01*
X455402Y136861D01*
X455327Y136893D01*
X455253Y136928D01*
X455181Y136966D01*
X455111Y137008D01*
X455043Y137053D01*
X454977Y137101D01*
X454913Y137152D01*
X454852Y137206D01*
X454793Y137262D01*
X454737Y137322D01*
X454684Y137383D01*
X454634Y137447D01*
X454586Y137514D01*
X454542Y137582D01*
X454501Y137653D01*
X454463Y137725D01*
X454429Y137799D01*
X454398Y137874D01*
X454370Y137951D01*
X454346Y138029D01*
X454326Y138108D01*
X454309Y138188D01*
X454296Y138268D01*
X454286Y138349D01*
X454281Y138430D01*
X454279Y138512D01*
X454281Y138594D01*
X454286Y138675D01*
X454296Y138756D01*
X454309Y138836D01*
X454326Y138916D01*
X454346Y138995D01*
X454370Y139073D01*
X454398Y139150D01*
X454429Y139225D01*
X454463Y139299D01*
X454501Y139371D01*
X454542Y139442D01*
X454586Y139510D01*
X454634Y139577D01*
X454684Y139641D01*
X454737Y139702D01*
X454793Y139762D01*
X454852Y139818D01*
X454913Y139872D01*
X454977Y139923D01*
X455043Y139971D01*
X455111Y140016D01*
X455181Y140058D01*
X455253Y140096D01*
X455327Y140131D01*
X455402Y140163D01*
X455478Y140191D01*
X455632Y140264D01*
X455787Y140333D01*
X455944Y140398D01*
X456103Y140460D01*
X456262Y140517D01*
X456424Y140571D01*
X456586Y140621D01*
X456749Y140667D01*
X456914Y140709D01*
X457080Y140747D01*
X457246Y140782D01*
X457413Y140812D01*
X457581Y140838D01*
X457749Y140860D01*
X457918Y140879D01*
X458088Y140893D01*
X458257Y140903D01*
X458427Y140909D01*
X458597Y140911D01*
X458597Y136113D02*
X458767Y136115D01*
X458937Y136121D01*
X459106Y136131D01*
X459276Y136145D01*
X459445Y136164D01*
X459613Y136186D01*
X459781Y136212D01*
X459948Y136242D01*
X460114Y136277D01*
X460280Y136315D01*
X460445Y136357D01*
X460608Y136403D01*
X460770Y136453D01*
X460932Y136507D01*
X461091Y136564D01*
X461250Y136626D01*
X461407Y136691D01*
X461562Y136760D01*
X461716Y136833D01*
X461792Y136861D01*
X461867Y136893D01*
X461941Y136928D01*
X462013Y136966D01*
X462083Y137008D01*
X462151Y137053D01*
X462217Y137101D01*
X462281Y137152D01*
X462342Y137206D01*
X462401Y137262D01*
X462457Y137322D01*
X462510Y137383D01*
X462560Y137447D01*
X462608Y137514D01*
X462652Y137582D01*
X462693Y137653D01*
X462731Y137725D01*
X462765Y137799D01*
X462796Y137874D01*
X462824Y137951D01*
X462848Y138029D01*
X462868Y138108D01*
X462885Y138188D01*
X462898Y138268D01*
X462908Y138349D01*
X462913Y138430D01*
X462915Y138512D01*
X461716Y140191D02*
X461562Y140264D01*
X461407Y140333D01*
X461250Y140398D01*
X461091Y140460D01*
X460932Y140517D01*
X460770Y140571D01*
X460608Y140621D01*
X460445Y140667D01*
X460280Y140709D01*
X460114Y140747D01*
X459948Y140782D01*
X459781Y140812D01*
X459613Y140838D01*
X459445Y140860D01*
X459276Y140879D01*
X459106Y140893D01*
X458937Y140903D01*
X458767Y140909D01*
X458597Y140911D01*
X461716Y140191D02*
X461792Y140163D01*
X461867Y140131D01*
X461941Y140096D01*
X462013Y140058D01*
X462083Y140016D01*
X462151Y139971D01*
X462217Y139923D01*
X462281Y139872D01*
X462342Y139818D01*
X462401Y139762D01*
X462457Y139702D01*
X462510Y139641D01*
X462560Y139577D01*
X462608Y139510D01*
X462652Y139442D01*
X462693Y139371D01*
X462731Y139299D01*
X462765Y139225D01*
X462796Y139150D01*
X462824Y139073D01*
X462848Y138995D01*
X462868Y138916D01*
X462885Y138836D01*
X462898Y138756D01*
X462908Y138675D01*
X462913Y138594D01*
X462915Y138512D01*
X460996Y136593D02*
X456198Y140431D01*
D17*
X419100Y139700D03*
D18*
X419100Y71755D03*
X419100Y283845D03*
D17*
X419100Y127000D03*
D16*
X364871Y89281D02*
X364871Y85725D01*
X364869Y85609D01*
X364863Y85492D01*
X364854Y85376D01*
X364841Y85261D01*
X364824Y85146D01*
X364803Y85031D01*
X364778Y84918D01*
X364750Y84805D01*
X364718Y84693D01*
X364682Y84582D01*
X364643Y84472D01*
X364600Y84364D01*
X364554Y84257D01*
X364504Y84152D01*
X364451Y84049D01*
X364395Y83947D01*
X364335Y83847D01*
X364272Y83749D01*
X364205Y83654D01*
X364136Y83560D01*
X364064Y83469D01*
X363989Y83380D01*
X363910Y83294D01*
X363829Y83211D01*
X363746Y83130D01*
X363660Y83051D01*
X363571Y82976D01*
X363480Y82904D01*
X363386Y82835D01*
X363291Y82768D01*
X363193Y82705D01*
X363093Y82645D01*
X362991Y82589D01*
X362888Y82536D01*
X362783Y82486D01*
X362676Y82440D01*
X362568Y82397D01*
X362458Y82358D01*
X362347Y82322D01*
X362235Y82290D01*
X362122Y82262D01*
X362009Y82237D01*
X361894Y82216D01*
X361779Y82199D01*
X361664Y82186D01*
X361548Y82177D01*
X361431Y82171D01*
X361315Y82169D01*
X352425Y82169D01*
X352309Y82171D01*
X352192Y82177D01*
X352076Y82186D01*
X351961Y82199D01*
X351846Y82216D01*
X351731Y82237D01*
X351618Y82262D01*
X351505Y82290D01*
X351393Y82322D01*
X351282Y82358D01*
X351172Y82397D01*
X351064Y82440D01*
X350957Y82486D01*
X350852Y82536D01*
X350749Y82589D01*
X350647Y82645D01*
X350547Y82705D01*
X350449Y82768D01*
X350354Y82835D01*
X350260Y82904D01*
X350169Y82976D01*
X350080Y83051D01*
X349994Y83130D01*
X349911Y83211D01*
X349830Y83294D01*
X349751Y83380D01*
X349676Y83469D01*
X349604Y83560D01*
X349535Y83654D01*
X349468Y83749D01*
X349405Y83847D01*
X349345Y83947D01*
X349289Y84049D01*
X349236Y84152D01*
X349186Y84257D01*
X349140Y84364D01*
X349097Y84472D01*
X349058Y84582D01*
X349022Y84693D01*
X348990Y84805D01*
X348962Y84918D01*
X348937Y85031D01*
X348916Y85146D01*
X348899Y85261D01*
X348886Y85376D01*
X348877Y85492D01*
X348871Y85609D01*
X348869Y85725D01*
X348869Y89281D01*
X348869Y100128D02*
X348871Y100254D01*
X348877Y100379D01*
X348887Y100505D01*
X348901Y100629D01*
X348918Y100754D01*
X348940Y100878D01*
X348965Y101001D01*
X348995Y101123D01*
X349028Y101244D01*
X349065Y101364D01*
X349106Y101483D01*
X349150Y101601D01*
X349198Y101717D01*
X349250Y101832D01*
X349305Y101944D01*
X349364Y102055D01*
X349426Y102165D01*
X349492Y102272D01*
X349561Y102377D01*
X349633Y102480D01*
X349709Y102580D01*
X349787Y102678D01*
X349869Y102774D01*
X349953Y102867D01*
X350041Y102957D01*
X350131Y103045D01*
X350224Y103129D01*
X350320Y103211D01*
X350418Y103289D01*
X350518Y103365D01*
X350621Y103437D01*
X350726Y103506D01*
X350833Y103572D01*
X350943Y103634D01*
X351054Y103693D01*
X351166Y103748D01*
X351281Y103800D01*
X351397Y103848D01*
X351515Y103892D01*
X351634Y103933D01*
X351754Y103970D01*
X351875Y104003D01*
X351997Y104033D01*
X352120Y104058D01*
X352244Y104080D01*
X352369Y104097D01*
X352493Y104111D01*
X352619Y104121D01*
X352744Y104127D01*
X352870Y104129D01*
X348869Y100128D02*
X348871Y99987D01*
X348877Y99847D01*
X348886Y99707D01*
X348900Y99567D01*
X348917Y99428D01*
X348938Y99289D01*
X348963Y99150D01*
X348991Y99013D01*
X349024Y98876D01*
X349060Y98740D01*
X349100Y98605D01*
X349143Y98472D01*
X349190Y98339D01*
X349241Y98208D01*
X349295Y98079D01*
X349353Y97951D01*
X349414Y97824D01*
X349479Y97699D01*
X349547Y97577D01*
X349618Y97456D01*
X349693Y97336D01*
X349771Y97220D01*
X349852Y97105D01*
X349936Y96992D01*
X350024Y96882D01*
X350114Y96774D01*
X350207Y96669D01*
X350303Y96567D01*
X350402Y96467D01*
X350503Y96369D01*
X350607Y96275D01*
X350714Y96183D01*
X350823Y96095D01*
X350934Y96009D01*
X351048Y95927D01*
X351164Y95847D01*
X351282Y95771D01*
X351402Y95698D01*
X351524Y95629D01*
X351648Y95562D01*
X351774Y95499D01*
X351901Y95440D01*
X352030Y95384D01*
X352160Y95332D01*
X352292Y95283D01*
X352425Y95238D01*
X355982Y102795D02*
X355891Y102887D01*
X355798Y102977D01*
X355703Y103063D01*
X355605Y103147D01*
X355504Y103227D01*
X355401Y103305D01*
X355296Y103379D01*
X355188Y103450D01*
X355079Y103518D01*
X354967Y103582D01*
X354854Y103644D01*
X354739Y103701D01*
X354622Y103756D01*
X354503Y103807D01*
X354383Y103854D01*
X354262Y103897D01*
X354140Y103937D01*
X354016Y103973D01*
X353891Y104006D01*
X353766Y104035D01*
X353639Y104060D01*
X353512Y104081D01*
X353384Y104098D01*
X353256Y104112D01*
X353128Y104121D01*
X352999Y104127D01*
X352870Y104129D01*
X355981Y102795D02*
X364871Y95239D01*
X364871Y104129D01*
D10*
X330200Y232410D02*
X228600Y232410D01*
X228600Y173990D02*
X330200Y173990D01*
X330200Y232410D01*
X228600Y232410D02*
X228600Y213360D01*
X228600Y193040D02*
X228600Y173990D01*
X228600Y193040D02*
X228847Y193043D01*
X229095Y193052D01*
X229342Y193067D01*
X229588Y193088D01*
X229834Y193115D01*
X230079Y193148D01*
X230324Y193187D01*
X230567Y193232D01*
X230809Y193283D01*
X231050Y193340D01*
X231289Y193402D01*
X231527Y193471D01*
X231763Y193545D01*
X231997Y193625D01*
X232229Y193710D01*
X232459Y193802D01*
X232687Y193898D01*
X232912Y194001D01*
X233135Y194108D01*
X233355Y194222D01*
X233572Y194340D01*
X233787Y194464D01*
X233998Y194593D01*
X234206Y194727D01*
X234411Y194866D01*
X234612Y195010D01*
X234810Y195158D01*
X235004Y195312D01*
X235194Y195470D01*
X235380Y195633D01*
X235562Y195800D01*
X235740Y195972D01*
X235914Y196148D01*
X236084Y196328D01*
X236249Y196513D01*
X236409Y196701D01*
X236565Y196893D01*
X236717Y197089D01*
X236863Y197288D01*
X237005Y197491D01*
X237141Y197698D01*
X237273Y197907D01*
X237399Y198120D01*
X237520Y198336D01*
X237636Y198554D01*
X237746Y198776D01*
X237851Y199000D01*
X237951Y199226D01*
X238045Y199455D01*
X238133Y199686D01*
X238216Y199920D01*
X238293Y200155D01*
X238364Y200392D01*
X238430Y200630D01*
X238489Y200870D01*
X238543Y201112D01*
X238591Y201355D01*
X238633Y201598D01*
X238669Y201843D01*
X238699Y202089D01*
X238723Y202335D01*
X238741Y202582D01*
X238753Y202829D01*
X238759Y203076D01*
X238759Y203324D01*
X238753Y203571D01*
X238741Y203818D01*
X238723Y204065D01*
X238699Y204311D01*
X238669Y204557D01*
X238633Y204802D01*
X238591Y205045D01*
X238543Y205288D01*
X238489Y205530D01*
X238430Y205770D01*
X238364Y206008D01*
X238293Y206245D01*
X238216Y206480D01*
X238133Y206714D01*
X238045Y206945D01*
X237951Y207174D01*
X237851Y207400D01*
X237746Y207624D01*
X237636Y207846D01*
X237520Y208064D01*
X237399Y208280D01*
X237273Y208493D01*
X237141Y208702D01*
X237005Y208909D01*
X236863Y209112D01*
X236717Y209311D01*
X236565Y209507D01*
X236409Y209699D01*
X236249Y209887D01*
X236084Y210072D01*
X235914Y210252D01*
X235740Y210428D01*
X235562Y210600D01*
X235380Y210767D01*
X235194Y210930D01*
X235004Y211088D01*
X234810Y211242D01*
X234612Y211390D01*
X234411Y211534D01*
X234206Y211673D01*
X233998Y211807D01*
X233787Y211936D01*
X233572Y212060D01*
X233355Y212178D01*
X233135Y212292D01*
X232912Y212399D01*
X232687Y212502D01*
X232459Y212598D01*
X232229Y212690D01*
X231997Y212775D01*
X231763Y212855D01*
X231527Y212929D01*
X231289Y212998D01*
X231050Y213060D01*
X230809Y213117D01*
X230567Y213168D01*
X230324Y213213D01*
X230079Y213252D01*
X229834Y213285D01*
X229588Y213312D01*
X229342Y213333D01*
X229095Y213348D01*
X228847Y213357D01*
X228600Y213360D01*
D13*
X225425Y175895D02*
X213995Y175895D01*
X225425Y174625D02*
X225425Y177165D01*
X213995Y177165D02*
X213995Y174625D01*
X225425Y184367D02*
X225425Y186907D01*
X225425Y184367D02*
X225423Y184267D01*
X225417Y184168D01*
X225407Y184068D01*
X225394Y183970D01*
X225376Y183871D01*
X225355Y183774D01*
X225330Y183678D01*
X225301Y183582D01*
X225268Y183488D01*
X225232Y183395D01*
X225192Y183304D01*
X225148Y183214D01*
X225101Y183126D01*
X225051Y183040D01*
X224997Y182956D01*
X224940Y182874D01*
X224880Y182795D01*
X224816Y182717D01*
X224750Y182643D01*
X224681Y182571D01*
X224609Y182502D01*
X224535Y182436D01*
X224457Y182372D01*
X224378Y182312D01*
X224296Y182255D01*
X224212Y182201D01*
X224126Y182151D01*
X224038Y182104D01*
X223948Y182060D01*
X223857Y182020D01*
X223764Y181984D01*
X223670Y181951D01*
X223574Y181922D01*
X223478Y181897D01*
X223381Y181876D01*
X223282Y181858D01*
X223184Y181845D01*
X223084Y181835D01*
X222985Y181829D01*
X222885Y181827D01*
X216535Y181827D01*
X216435Y181829D01*
X216336Y181835D01*
X216236Y181845D01*
X216138Y181858D01*
X216039Y181876D01*
X215942Y181897D01*
X215846Y181922D01*
X215750Y181951D01*
X215656Y181984D01*
X215563Y182020D01*
X215472Y182060D01*
X215382Y182104D01*
X215294Y182151D01*
X215208Y182201D01*
X215124Y182255D01*
X215042Y182312D01*
X214963Y182372D01*
X214885Y182436D01*
X214811Y182502D01*
X214739Y182571D01*
X214670Y182643D01*
X214604Y182717D01*
X214540Y182795D01*
X214480Y182874D01*
X214423Y182956D01*
X214369Y183040D01*
X214319Y183126D01*
X214272Y183214D01*
X214228Y183304D01*
X214188Y183395D01*
X214152Y183488D01*
X214119Y183582D01*
X214090Y183678D01*
X214065Y183774D01*
X214044Y183871D01*
X214026Y183970D01*
X214013Y184068D01*
X214003Y184168D01*
X213997Y184267D01*
X213995Y184367D01*
X213995Y186907D01*
X225425Y191389D02*
X225425Y194564D01*
X225423Y194675D01*
X225417Y194785D01*
X225408Y194896D01*
X225394Y195006D01*
X225377Y195115D01*
X225356Y195224D01*
X225331Y195332D01*
X225302Y195439D01*
X225270Y195545D01*
X225234Y195650D01*
X225194Y195753D01*
X225151Y195855D01*
X225104Y195956D01*
X225053Y196055D01*
X225000Y196152D01*
X224943Y196246D01*
X224882Y196339D01*
X224819Y196430D01*
X224752Y196519D01*
X224682Y196605D01*
X224609Y196688D01*
X224534Y196770D01*
X224456Y196848D01*
X224374Y196923D01*
X224291Y196996D01*
X224205Y197066D01*
X224116Y197133D01*
X224025Y197196D01*
X223932Y197257D01*
X223838Y197314D01*
X223741Y197367D01*
X223642Y197418D01*
X223541Y197465D01*
X223439Y197508D01*
X223336Y197548D01*
X223231Y197584D01*
X223125Y197616D01*
X223018Y197645D01*
X222910Y197670D01*
X222801Y197691D01*
X222692Y197708D01*
X222582Y197722D01*
X222471Y197731D01*
X222361Y197737D01*
X222250Y197739D01*
X222139Y197737D01*
X222029Y197731D01*
X221918Y197722D01*
X221808Y197708D01*
X221699Y197691D01*
X221590Y197670D01*
X221482Y197645D01*
X221375Y197616D01*
X221269Y197584D01*
X221164Y197548D01*
X221061Y197508D01*
X220959Y197465D01*
X220858Y197418D01*
X220759Y197367D01*
X220663Y197314D01*
X220568Y197257D01*
X220475Y197196D01*
X220384Y197133D01*
X220295Y197066D01*
X220209Y196996D01*
X220126Y196923D01*
X220044Y196848D01*
X219966Y196770D01*
X219891Y196688D01*
X219818Y196605D01*
X219748Y196519D01*
X219681Y196430D01*
X219618Y196339D01*
X219557Y196246D01*
X219500Y196152D01*
X219447Y196055D01*
X219396Y195956D01*
X219349Y195855D01*
X219306Y195753D01*
X219266Y195650D01*
X219230Y195545D01*
X219198Y195439D01*
X219169Y195332D01*
X219144Y195224D01*
X219123Y195115D01*
X219106Y195006D01*
X219092Y194896D01*
X219083Y194785D01*
X219077Y194675D01*
X219075Y194564D01*
X213995Y195199D02*
X213995Y191389D01*
X213995Y195199D02*
X213997Y195299D01*
X214003Y195398D01*
X214013Y195498D01*
X214026Y195596D01*
X214044Y195695D01*
X214065Y195792D01*
X214090Y195888D01*
X214119Y195984D01*
X214152Y196078D01*
X214188Y196171D01*
X214228Y196262D01*
X214272Y196352D01*
X214319Y196440D01*
X214369Y196526D01*
X214423Y196610D01*
X214480Y196692D01*
X214540Y196771D01*
X214604Y196849D01*
X214670Y196923D01*
X214739Y196995D01*
X214811Y197064D01*
X214885Y197130D01*
X214963Y197194D01*
X215042Y197254D01*
X215124Y197311D01*
X215208Y197365D01*
X215294Y197415D01*
X215382Y197462D01*
X215472Y197506D01*
X215563Y197546D01*
X215656Y197582D01*
X215750Y197615D01*
X215846Y197644D01*
X215942Y197669D01*
X216039Y197690D01*
X216138Y197708D01*
X216236Y197721D01*
X216336Y197731D01*
X216435Y197737D01*
X216535Y197739D01*
X216635Y197737D01*
X216734Y197731D01*
X216834Y197721D01*
X216932Y197708D01*
X217031Y197690D01*
X217128Y197669D01*
X217224Y197644D01*
X217320Y197615D01*
X217414Y197582D01*
X217507Y197546D01*
X217598Y197506D01*
X217688Y197462D01*
X217776Y197415D01*
X217862Y197365D01*
X217946Y197311D01*
X218028Y197254D01*
X218107Y197194D01*
X218185Y197130D01*
X218259Y197064D01*
X218331Y196995D01*
X218400Y196923D01*
X218466Y196849D01*
X218530Y196771D01*
X218590Y196692D01*
X218647Y196610D01*
X218701Y196526D01*
X218751Y196440D01*
X218798Y196352D01*
X218842Y196262D01*
X218882Y196171D01*
X218918Y196078D01*
X218951Y195984D01*
X218980Y195888D01*
X219005Y195792D01*
X219026Y195695D01*
X219044Y195596D01*
X219057Y195498D01*
X219067Y195398D01*
X219073Y195299D01*
X219075Y195199D01*
X219075Y192659D01*
D19*
X88900Y158750D02*
X88900Y120650D01*
D12*
X88426Y120034D01*
X87937Y119429D01*
X87433Y118837D01*
X86915Y118257D01*
X86383Y117690D01*
X85837Y117136D01*
X85278Y116596D01*
X84705Y116070D01*
X84120Y115557D01*
X83523Y115060D01*
X82914Y114577D01*
X82293Y114109D01*
X81660Y113656D01*
X81017Y113219D01*
X80363Y112798D01*
X79699Y112394D01*
X79026Y112005D01*
X78343Y111633D01*
X77651Y111278D01*
X76951Y110940D01*
X76243Y110619D01*
X75527Y110316D01*
X74803Y110030D01*
X74074Y109762D01*
X73337Y109512D01*
X72595Y109281D01*
X71847Y109067D01*
X71095Y108872D01*
X70337Y108695D01*
X69576Y108537D01*
X68811Y108397D01*
X68043Y108277D01*
X67272Y108175D01*
X66499Y108092D01*
X65724Y108028D01*
X64948Y107983D01*
X64171Y107957D01*
X63393Y107950D01*
X62616Y107962D01*
X61839Y107993D01*
X61063Y108044D01*
X60288Y108113D01*
X59516Y108201D01*
X58746Y108308D01*
X57978Y108434D01*
X57214Y108578D01*
X56454Y108742D01*
X55698Y108924D01*
X54947Y109124D01*
X54200Y109342D01*
X53460Y109579D01*
X52725Y109834D01*
X51997Y110107D01*
X51276Y110398D01*
X50562Y110706D01*
X49856Y111031D01*
X49158Y111374D01*
X48468Y111734D01*
X47788Y112110D01*
X47117Y112503D01*
X46456Y112913D01*
X45805Y113338D01*
X45165Y113779D01*
X44536Y114236D01*
X43918Y114708D01*
X43312Y115195D01*
X42718Y115697D01*
X42136Y116213D01*
X41567Y116743D01*
X41012Y117287D01*
X40469Y117845D01*
X39941Y118415D01*
X39427Y118998D01*
X38927Y119594D01*
X38442Y120202D01*
X37972Y120821D01*
X37518Y121452D01*
X37079Y122094D01*
X36655Y122746D01*
X36248Y123409D01*
X35857Y124081D01*
X35483Y124763D01*
X35126Y125453D01*
X34786Y126152D01*
X34462Y126860D01*
X34157Y127574D01*
X33868Y128297D01*
X33598Y129026D01*
X33346Y129761D01*
X33111Y130503D01*
X32895Y131250D01*
X32697Y132002D01*
X32518Y132758D01*
X32357Y133519D01*
X32215Y134283D01*
X32092Y135051D01*
X31988Y135822D01*
X31902Y136595D01*
X31836Y137369D01*
X31788Y138145D01*
X31760Y138922D01*
X31750Y139700D01*
X31760Y140478D01*
X31788Y141255D01*
X31836Y142031D01*
X31902Y142805D01*
X31988Y143578D01*
X32092Y144349D01*
X32215Y145117D01*
X32357Y145881D01*
X32518Y146642D01*
X32697Y147398D01*
X32895Y148150D01*
X33111Y148897D01*
X33346Y149639D01*
X33598Y150374D01*
X33868Y151103D01*
X34157Y151826D01*
X34462Y152540D01*
X34786Y153248D01*
X35126Y153947D01*
X35483Y154637D01*
X35857Y155319D01*
X36248Y155991D01*
X36655Y156654D01*
X37079Y157306D01*
X37518Y157948D01*
X37972Y158579D01*
X38442Y159198D01*
X38927Y159806D01*
X39427Y160402D01*
X39941Y160985D01*
X40469Y161555D01*
X41012Y162113D01*
X41567Y162657D01*
X42136Y163187D01*
X42718Y163703D01*
X43312Y164205D01*
X43918Y164692D01*
X44536Y165164D01*
X45165Y165621D01*
X45805Y166062D01*
X46456Y166487D01*
X47117Y166897D01*
X47788Y167290D01*
X48468Y167666D01*
X49158Y168026D01*
X49856Y168369D01*
X50562Y168694D01*
X51276Y169002D01*
X51997Y169293D01*
X52725Y169566D01*
X53460Y169821D01*
X54200Y170058D01*
X54947Y170276D01*
X55698Y170476D01*
X56454Y170658D01*
X57214Y170822D01*
X57978Y170966D01*
X58746Y171092D01*
X59516Y171199D01*
X60288Y171287D01*
X61063Y171356D01*
X61839Y171407D01*
X62616Y171438D01*
X63393Y171450D01*
X64171Y171443D01*
X64948Y171417D01*
X65724Y171372D01*
X66499Y171308D01*
X67272Y171225D01*
X68043Y171123D01*
X68811Y171003D01*
X69576Y170863D01*
X70337Y170705D01*
X71095Y170528D01*
X71847Y170333D01*
X72595Y170119D01*
X73337Y169888D01*
X74074Y169638D01*
X74803Y169370D01*
X75527Y169084D01*
X76243Y168781D01*
X76951Y168460D01*
X77651Y168122D01*
X78343Y167767D01*
X79026Y167395D01*
X79699Y167006D01*
X80363Y166602D01*
X81017Y166181D01*
X81660Y165744D01*
X82293Y165291D01*
X82914Y164823D01*
X83523Y164340D01*
X84120Y163843D01*
X84705Y163330D01*
X85278Y162804D01*
X85837Y162264D01*
X86383Y161710D01*
X86915Y161143D01*
X87433Y160563D01*
X87937Y159971D01*
X88426Y159366D01*
X88900Y158750D01*
D10*
X38100Y139700D02*
X38108Y140323D01*
X38131Y140946D01*
X38169Y141569D01*
X38222Y142190D01*
X38291Y142809D01*
X38375Y143427D01*
X38474Y144042D01*
X38588Y144655D01*
X38717Y145265D01*
X38861Y145872D01*
X39020Y146475D01*
X39194Y147073D01*
X39382Y147668D01*
X39585Y148257D01*
X39802Y148841D01*
X40033Y149420D01*
X40279Y149993D01*
X40539Y150560D01*
X40812Y151120D01*
X41099Y151673D01*
X41400Y152220D01*
X41714Y152758D01*
X42041Y153289D01*
X42381Y153811D01*
X42733Y154326D01*
X43099Y154831D01*
X43476Y155327D01*
X43866Y155814D01*
X44267Y156291D01*
X44680Y156758D01*
X45104Y157214D01*
X45539Y157661D01*
X45986Y158096D01*
X46442Y158520D01*
X46909Y158933D01*
X47386Y159334D01*
X47873Y159724D01*
X48369Y160101D01*
X48874Y160467D01*
X49389Y160819D01*
X49911Y161159D01*
X50442Y161486D01*
X50980Y161800D01*
X51527Y162101D01*
X52080Y162388D01*
X52640Y162661D01*
X53207Y162921D01*
X53780Y163167D01*
X54359Y163398D01*
X54943Y163615D01*
X55532Y163818D01*
X56127Y164006D01*
X56725Y164180D01*
X57328Y164339D01*
X57935Y164483D01*
X58545Y164612D01*
X59158Y164726D01*
X59773Y164825D01*
X60391Y164909D01*
X61010Y164978D01*
X61631Y165031D01*
X62254Y165069D01*
X62877Y165092D01*
X63500Y165100D01*
X64123Y165092D01*
X64746Y165069D01*
X65369Y165031D01*
X65990Y164978D01*
X66609Y164909D01*
X67227Y164825D01*
X67842Y164726D01*
X68455Y164612D01*
X69065Y164483D01*
X69672Y164339D01*
X70275Y164180D01*
X70873Y164006D01*
X71468Y163818D01*
X72057Y163615D01*
X72641Y163398D01*
X73220Y163167D01*
X73793Y162921D01*
X74360Y162661D01*
X74920Y162388D01*
X75473Y162101D01*
X76020Y161800D01*
X76558Y161486D01*
X77089Y161159D01*
X77611Y160819D01*
X78126Y160467D01*
X78631Y160101D01*
X79127Y159724D01*
X79614Y159334D01*
X80091Y158933D01*
X80558Y158520D01*
X81014Y158096D01*
X81461Y157661D01*
X81896Y157214D01*
X82320Y156758D01*
X82733Y156291D01*
X83134Y155814D01*
X83524Y155327D01*
X83901Y154831D01*
X84267Y154326D01*
X84619Y153811D01*
X84959Y153289D01*
X85286Y152758D01*
X85600Y152220D01*
X85901Y151673D01*
X86188Y151120D01*
X86461Y150560D01*
X86721Y149993D01*
X86967Y149420D01*
X87198Y148841D01*
X87415Y148257D01*
X87618Y147668D01*
X87806Y147073D01*
X87980Y146475D01*
X88139Y145872D01*
X88283Y145265D01*
X88412Y144655D01*
X88526Y144042D01*
X88625Y143427D01*
X88709Y142809D01*
X88778Y142190D01*
X88831Y141569D01*
X88869Y140946D01*
X88892Y140323D01*
X88900Y139700D01*
X88892Y139077D01*
X88869Y138454D01*
X88831Y137831D01*
X88778Y137210D01*
X88709Y136591D01*
X88625Y135973D01*
X88526Y135358D01*
X88412Y134745D01*
X88283Y134135D01*
X88139Y133528D01*
X87980Y132925D01*
X87806Y132327D01*
X87618Y131732D01*
X87415Y131143D01*
X87198Y130559D01*
X86967Y129980D01*
X86721Y129407D01*
X86461Y128840D01*
X86188Y128280D01*
X85901Y127727D01*
X85600Y127180D01*
X85286Y126642D01*
X84959Y126111D01*
X84619Y125589D01*
X84267Y125074D01*
X83901Y124569D01*
X83524Y124073D01*
X83134Y123586D01*
X82733Y123109D01*
X82320Y122642D01*
X81896Y122186D01*
X81461Y121739D01*
X81014Y121304D01*
X80558Y120880D01*
X80091Y120467D01*
X79614Y120066D01*
X79127Y119676D01*
X78631Y119299D01*
X78126Y118933D01*
X77611Y118581D01*
X77089Y118241D01*
X76558Y117914D01*
X76020Y117600D01*
X75473Y117299D01*
X74920Y117012D01*
X74360Y116739D01*
X73793Y116479D01*
X73220Y116233D01*
X72641Y116002D01*
X72057Y115785D01*
X71468Y115582D01*
X70873Y115394D01*
X70275Y115220D01*
X69672Y115061D01*
X69065Y114917D01*
X68455Y114788D01*
X67842Y114674D01*
X67227Y114575D01*
X66609Y114491D01*
X65990Y114422D01*
X65369Y114369D01*
X64746Y114331D01*
X64123Y114308D01*
X63500Y114300D01*
X62877Y114308D01*
X62254Y114331D01*
X61631Y114369D01*
X61010Y114422D01*
X60391Y114491D01*
X59773Y114575D01*
X59158Y114674D01*
X58545Y114788D01*
X57935Y114917D01*
X57328Y115061D01*
X56725Y115220D01*
X56127Y115394D01*
X55532Y115582D01*
X54943Y115785D01*
X54359Y116002D01*
X53780Y116233D01*
X53207Y116479D01*
X52640Y116739D01*
X52080Y117012D01*
X51527Y117299D01*
X50980Y117600D01*
X50442Y117914D01*
X49911Y118241D01*
X49389Y118581D01*
X48874Y118933D01*
X48369Y119299D01*
X47873Y119676D01*
X47386Y120066D01*
X46909Y120467D01*
X46442Y120880D01*
X45986Y121304D01*
X45539Y121739D01*
X45104Y122186D01*
X44680Y122642D01*
X44267Y123109D01*
X43866Y123586D01*
X43476Y124073D01*
X43099Y124569D01*
X42733Y125074D01*
X42381Y125589D01*
X42041Y126111D01*
X41714Y126642D01*
X41400Y127180D01*
X41099Y127727D01*
X40812Y128280D01*
X40539Y128840D01*
X40279Y129407D01*
X40033Y129980D01*
X39802Y130559D01*
X39585Y131143D01*
X39382Y131732D01*
X39194Y132327D01*
X39020Y132925D01*
X38861Y133528D01*
X38717Y134135D01*
X38588Y134745D01*
X38474Y135358D01*
X38375Y135973D01*
X38291Y136591D01*
X38222Y137210D01*
X38169Y137831D01*
X38131Y138454D01*
X38108Y139077D01*
X38100Y139700D01*
D13*
X95885Y145669D02*
X95885Y157099D01*
X95885Y145669D02*
X100965Y145669D01*
X105791Y145669D02*
X110871Y145669D01*
X105791Y145669D02*
X105791Y157099D01*
X110871Y157099D01*
X109601Y152019D02*
X105791Y152019D01*
X115672Y157099D02*
X115672Y145669D01*
X115672Y157099D02*
X118847Y157099D01*
X118958Y157097D01*
X119068Y157091D01*
X119179Y157082D01*
X119289Y157068D01*
X119398Y157051D01*
X119507Y157030D01*
X119615Y157005D01*
X119722Y156976D01*
X119828Y156944D01*
X119933Y156908D01*
X120036Y156868D01*
X120138Y156825D01*
X120239Y156778D01*
X120338Y156727D01*
X120435Y156674D01*
X120529Y156617D01*
X120622Y156556D01*
X120713Y156493D01*
X120802Y156426D01*
X120888Y156356D01*
X120971Y156283D01*
X121053Y156208D01*
X121131Y156130D01*
X121206Y156048D01*
X121279Y155965D01*
X121349Y155879D01*
X121416Y155790D01*
X121479Y155699D01*
X121540Y155606D01*
X121597Y155512D01*
X121650Y155415D01*
X121701Y155316D01*
X121748Y155215D01*
X121791Y155113D01*
X121831Y155010D01*
X121867Y154905D01*
X121899Y154799D01*
X121928Y154692D01*
X121953Y154584D01*
X121974Y154475D01*
X121991Y154366D01*
X122005Y154256D01*
X122014Y154145D01*
X122020Y154035D01*
X122022Y153924D01*
X122022Y148844D01*
X122020Y148733D01*
X122014Y148623D01*
X122005Y148512D01*
X121991Y148402D01*
X121974Y148293D01*
X121953Y148184D01*
X121928Y148076D01*
X121899Y147969D01*
X121867Y147863D01*
X121831Y147758D01*
X121791Y147655D01*
X121748Y147553D01*
X121701Y147452D01*
X121650Y147353D01*
X121597Y147256D01*
X121540Y147162D01*
X121479Y147069D01*
X121416Y146978D01*
X121349Y146889D01*
X121279Y146803D01*
X121206Y146720D01*
X121131Y146638D01*
X121053Y146560D01*
X120971Y146485D01*
X120888Y146412D01*
X120802Y146342D01*
X120713Y146275D01*
X120622Y146212D01*
X120529Y146151D01*
X120434Y146094D01*
X120338Y146041D01*
X120239Y145990D01*
X120138Y145943D01*
X120036Y145900D01*
X119933Y145860D01*
X119828Y145824D01*
X119722Y145792D01*
X119615Y145763D01*
X119507Y145738D01*
X119398Y145717D01*
X119289Y145700D01*
X119179Y145686D01*
X119068Y145677D01*
X118958Y145671D01*
X118847Y145669D01*
X115672Y145669D01*
X127483Y154559D02*
X130658Y157099D01*
X130658Y145669D01*
X127483Y145669D02*
X133833Y145669D01*
D19*
X88900Y82550D02*
X88900Y44450D01*
D12*
X88426Y43834D01*
X87937Y43229D01*
X87433Y42637D01*
X86915Y42057D01*
X86383Y41490D01*
X85837Y40936D01*
X85278Y40396D01*
X84705Y39870D01*
X84120Y39357D01*
X83523Y38860D01*
X82914Y38377D01*
X82293Y37909D01*
X81660Y37456D01*
X81017Y37019D01*
X80363Y36598D01*
X79699Y36194D01*
X79026Y35805D01*
X78343Y35433D01*
X77651Y35078D01*
X76951Y34740D01*
X76243Y34419D01*
X75527Y34116D01*
X74803Y33830D01*
X74074Y33562D01*
X73337Y33312D01*
X72595Y33081D01*
X71847Y32867D01*
X71095Y32672D01*
X70337Y32495D01*
X69576Y32337D01*
X68811Y32197D01*
X68043Y32077D01*
X67272Y31975D01*
X66499Y31892D01*
X65724Y31828D01*
X64948Y31783D01*
X64171Y31757D01*
X63393Y31750D01*
X62616Y31762D01*
X61839Y31793D01*
X61063Y31844D01*
X60288Y31913D01*
X59516Y32001D01*
X58746Y32108D01*
X57978Y32234D01*
X57214Y32378D01*
X56454Y32542D01*
X55698Y32724D01*
X54947Y32924D01*
X54200Y33142D01*
X53460Y33379D01*
X52725Y33634D01*
X51997Y33907D01*
X51276Y34198D01*
X50562Y34506D01*
X49856Y34831D01*
X49158Y35174D01*
X48468Y35534D01*
X47788Y35910D01*
X47117Y36303D01*
X46456Y36713D01*
X45805Y37138D01*
X45165Y37579D01*
X44536Y38036D01*
X43918Y38508D01*
X43312Y38995D01*
X42718Y39497D01*
X42136Y40013D01*
X41567Y40543D01*
X41012Y41087D01*
X40469Y41645D01*
X39941Y42215D01*
X39427Y42798D01*
X38927Y43394D01*
X38442Y44002D01*
X37972Y44621D01*
X37518Y45252D01*
X37079Y45894D01*
X36655Y46546D01*
X36248Y47209D01*
X35857Y47881D01*
X35483Y48563D01*
X35126Y49253D01*
X34786Y49952D01*
X34462Y50660D01*
X34157Y51374D01*
X33868Y52097D01*
X33598Y52826D01*
X33346Y53561D01*
X33111Y54303D01*
X32895Y55050D01*
X32697Y55802D01*
X32518Y56558D01*
X32357Y57319D01*
X32215Y58083D01*
X32092Y58851D01*
X31988Y59622D01*
X31902Y60395D01*
X31836Y61169D01*
X31788Y61945D01*
X31760Y62722D01*
X31750Y63500D01*
X31760Y64278D01*
X31788Y65055D01*
X31836Y65831D01*
X31902Y66605D01*
X31988Y67378D01*
X32092Y68149D01*
X32215Y68917D01*
X32357Y69681D01*
X32518Y70442D01*
X32697Y71198D01*
X32895Y71950D01*
X33111Y72697D01*
X33346Y73439D01*
X33598Y74174D01*
X33868Y74903D01*
X34157Y75626D01*
X34462Y76340D01*
X34786Y77048D01*
X35126Y77747D01*
X35483Y78437D01*
X35857Y79119D01*
X36248Y79791D01*
X36655Y80454D01*
X37079Y81106D01*
X37518Y81748D01*
X37972Y82379D01*
X38442Y82998D01*
X38927Y83606D01*
X39427Y84202D01*
X39941Y84785D01*
X40469Y85355D01*
X41012Y85913D01*
X41567Y86457D01*
X42136Y86987D01*
X42718Y87503D01*
X43312Y88005D01*
X43918Y88492D01*
X44536Y88964D01*
X45165Y89421D01*
X45805Y89862D01*
X46456Y90287D01*
X47117Y90697D01*
X47788Y91090D01*
X48468Y91466D01*
X49158Y91826D01*
X49856Y92169D01*
X50562Y92494D01*
X51276Y92802D01*
X51997Y93093D01*
X52725Y93366D01*
X53460Y93621D01*
X54200Y93858D01*
X54947Y94076D01*
X55698Y94276D01*
X56454Y94458D01*
X57214Y94622D01*
X57978Y94766D01*
X58746Y94892D01*
X59516Y94999D01*
X60288Y95087D01*
X61063Y95156D01*
X61839Y95207D01*
X62616Y95238D01*
X63393Y95250D01*
X64171Y95243D01*
X64948Y95217D01*
X65724Y95172D01*
X66499Y95108D01*
X67272Y95025D01*
X68043Y94923D01*
X68811Y94803D01*
X69576Y94663D01*
X70337Y94505D01*
X71095Y94328D01*
X71847Y94133D01*
X72595Y93919D01*
X73337Y93688D01*
X74074Y93438D01*
X74803Y93170D01*
X75527Y92884D01*
X76243Y92581D01*
X76951Y92260D01*
X77651Y91922D01*
X78343Y91567D01*
X79026Y91195D01*
X79699Y90806D01*
X80363Y90402D01*
X81017Y89981D01*
X81660Y89544D01*
X82293Y89091D01*
X82914Y88623D01*
X83523Y88140D01*
X84120Y87643D01*
X84705Y87130D01*
X85278Y86604D01*
X85837Y86064D01*
X86383Y85510D01*
X86915Y84943D01*
X87433Y84363D01*
X87937Y83771D01*
X88426Y83166D01*
X88900Y82550D01*
D10*
X38100Y63500D02*
X38108Y64123D01*
X38131Y64746D01*
X38169Y65369D01*
X38222Y65990D01*
X38291Y66609D01*
X38375Y67227D01*
X38474Y67842D01*
X38588Y68455D01*
X38717Y69065D01*
X38861Y69672D01*
X39020Y70275D01*
X39194Y70873D01*
X39382Y71468D01*
X39585Y72057D01*
X39802Y72641D01*
X40033Y73220D01*
X40279Y73793D01*
X40539Y74360D01*
X40812Y74920D01*
X41099Y75473D01*
X41400Y76020D01*
X41714Y76558D01*
X42041Y77089D01*
X42381Y77611D01*
X42733Y78126D01*
X43099Y78631D01*
X43476Y79127D01*
X43866Y79614D01*
X44267Y80091D01*
X44680Y80558D01*
X45104Y81014D01*
X45539Y81461D01*
X45986Y81896D01*
X46442Y82320D01*
X46909Y82733D01*
X47386Y83134D01*
X47873Y83524D01*
X48369Y83901D01*
X48874Y84267D01*
X49389Y84619D01*
X49911Y84959D01*
X50442Y85286D01*
X50980Y85600D01*
X51527Y85901D01*
X52080Y86188D01*
X52640Y86461D01*
X53207Y86721D01*
X53780Y86967D01*
X54359Y87198D01*
X54943Y87415D01*
X55532Y87618D01*
X56127Y87806D01*
X56725Y87980D01*
X57328Y88139D01*
X57935Y88283D01*
X58545Y88412D01*
X59158Y88526D01*
X59773Y88625D01*
X60391Y88709D01*
X61010Y88778D01*
X61631Y88831D01*
X62254Y88869D01*
X62877Y88892D01*
X63500Y88900D01*
X64123Y88892D01*
X64746Y88869D01*
X65369Y88831D01*
X65990Y88778D01*
X66609Y88709D01*
X67227Y88625D01*
X67842Y88526D01*
X68455Y88412D01*
X69065Y88283D01*
X69672Y88139D01*
X70275Y87980D01*
X70873Y87806D01*
X71468Y87618D01*
X72057Y87415D01*
X72641Y87198D01*
X73220Y86967D01*
X73793Y86721D01*
X74360Y86461D01*
X74920Y86188D01*
X75473Y85901D01*
X76020Y85600D01*
X76558Y85286D01*
X77089Y84959D01*
X77611Y84619D01*
X78126Y84267D01*
X78631Y83901D01*
X79127Y83524D01*
X79614Y83134D01*
X80091Y82733D01*
X80558Y82320D01*
X81014Y81896D01*
X81461Y81461D01*
X81896Y81014D01*
X82320Y80558D01*
X82733Y80091D01*
X83134Y79614D01*
X83524Y79127D01*
X83901Y78631D01*
X84267Y78126D01*
X84619Y77611D01*
X84959Y77089D01*
X85286Y76558D01*
X85600Y76020D01*
X85901Y75473D01*
X86188Y74920D01*
X86461Y74360D01*
X86721Y73793D01*
X86967Y73220D01*
X87198Y72641D01*
X87415Y72057D01*
X87618Y71468D01*
X87806Y70873D01*
X87980Y70275D01*
X88139Y69672D01*
X88283Y69065D01*
X88412Y68455D01*
X88526Y67842D01*
X88625Y67227D01*
X88709Y66609D01*
X88778Y65990D01*
X88831Y65369D01*
X88869Y64746D01*
X88892Y64123D01*
X88900Y63500D01*
X88892Y62877D01*
X88869Y62254D01*
X88831Y61631D01*
X88778Y61010D01*
X88709Y60391D01*
X88625Y59773D01*
X88526Y59158D01*
X88412Y58545D01*
X88283Y57935D01*
X88139Y57328D01*
X87980Y56725D01*
X87806Y56127D01*
X87618Y55532D01*
X87415Y54943D01*
X87198Y54359D01*
X86967Y53780D01*
X86721Y53207D01*
X86461Y52640D01*
X86188Y52080D01*
X85901Y51527D01*
X85600Y50980D01*
X85286Y50442D01*
X84959Y49911D01*
X84619Y49389D01*
X84267Y48874D01*
X83901Y48369D01*
X83524Y47873D01*
X83134Y47386D01*
X82733Y46909D01*
X82320Y46442D01*
X81896Y45986D01*
X81461Y45539D01*
X81014Y45104D01*
X80558Y44680D01*
X80091Y44267D01*
X79614Y43866D01*
X79127Y43476D01*
X78631Y43099D01*
X78126Y42733D01*
X77611Y42381D01*
X77089Y42041D01*
X76558Y41714D01*
X76020Y41400D01*
X75473Y41099D01*
X74920Y40812D01*
X74360Y40539D01*
X73793Y40279D01*
X73220Y40033D01*
X72641Y39802D01*
X72057Y39585D01*
X71468Y39382D01*
X70873Y39194D01*
X70275Y39020D01*
X69672Y38861D01*
X69065Y38717D01*
X68455Y38588D01*
X67842Y38474D01*
X67227Y38375D01*
X66609Y38291D01*
X65990Y38222D01*
X65369Y38169D01*
X64746Y38131D01*
X64123Y38108D01*
X63500Y38100D01*
X62877Y38108D01*
X62254Y38131D01*
X61631Y38169D01*
X61010Y38222D01*
X60391Y38291D01*
X59773Y38375D01*
X59158Y38474D01*
X58545Y38588D01*
X57935Y38717D01*
X57328Y38861D01*
X56725Y39020D01*
X56127Y39194D01*
X55532Y39382D01*
X54943Y39585D01*
X54359Y39802D01*
X53780Y40033D01*
X53207Y40279D01*
X52640Y40539D01*
X52080Y40812D01*
X51527Y41099D01*
X50980Y41400D01*
X50442Y41714D01*
X49911Y42041D01*
X49389Y42381D01*
X48874Y42733D01*
X48369Y43099D01*
X47873Y43476D01*
X47386Y43866D01*
X46909Y44267D01*
X46442Y44680D01*
X45986Y45104D01*
X45539Y45539D01*
X45104Y45986D01*
X44680Y46442D01*
X44267Y46909D01*
X43866Y47386D01*
X43476Y47873D01*
X43099Y48369D01*
X42733Y48874D01*
X42381Y49389D01*
X42041Y49911D01*
X41714Y50442D01*
X41400Y50980D01*
X41099Y51527D01*
X40812Y52080D01*
X40539Y52640D01*
X40279Y53207D01*
X40033Y53780D01*
X39802Y54359D01*
X39585Y54943D01*
X39382Y55532D01*
X39194Y56127D01*
X39020Y56725D01*
X38861Y57328D01*
X38717Y57935D01*
X38588Y58545D01*
X38474Y59158D01*
X38375Y59773D01*
X38291Y60391D01*
X38222Y61010D01*
X38169Y61631D01*
X38131Y62254D01*
X38108Y62877D01*
X38100Y63500D01*
D13*
X95885Y69469D02*
X95885Y80899D01*
X95885Y69469D02*
X100965Y69469D01*
X105791Y69469D02*
X110871Y69469D01*
X105791Y69469D02*
X105791Y80899D01*
X110871Y80899D01*
X109601Y75819D02*
X105791Y75819D01*
X115672Y80899D02*
X115672Y69469D01*
X115672Y80899D02*
X118847Y80899D01*
X118958Y80897D01*
X119068Y80891D01*
X119179Y80882D01*
X119289Y80868D01*
X119398Y80851D01*
X119507Y80830D01*
X119615Y80805D01*
X119722Y80776D01*
X119828Y80744D01*
X119933Y80708D01*
X120036Y80668D01*
X120138Y80625D01*
X120239Y80578D01*
X120338Y80527D01*
X120435Y80474D01*
X120529Y80417D01*
X120622Y80356D01*
X120713Y80293D01*
X120802Y80226D01*
X120888Y80156D01*
X120971Y80083D01*
X121053Y80008D01*
X121131Y79930D01*
X121206Y79848D01*
X121279Y79765D01*
X121349Y79679D01*
X121416Y79590D01*
X121479Y79499D01*
X121540Y79406D01*
X121597Y79312D01*
X121650Y79215D01*
X121701Y79116D01*
X121748Y79015D01*
X121791Y78913D01*
X121831Y78810D01*
X121867Y78705D01*
X121899Y78599D01*
X121928Y78492D01*
X121953Y78384D01*
X121974Y78275D01*
X121991Y78166D01*
X122005Y78056D01*
X122014Y77945D01*
X122020Y77835D01*
X122022Y77724D01*
X122022Y72644D01*
X122020Y72533D01*
X122014Y72423D01*
X122005Y72312D01*
X121991Y72202D01*
X121974Y72093D01*
X121953Y71984D01*
X121928Y71876D01*
X121899Y71769D01*
X121867Y71663D01*
X121831Y71558D01*
X121791Y71455D01*
X121748Y71353D01*
X121701Y71252D01*
X121650Y71153D01*
X121597Y71056D01*
X121540Y70962D01*
X121479Y70869D01*
X121416Y70778D01*
X121349Y70689D01*
X121279Y70603D01*
X121206Y70520D01*
X121131Y70438D01*
X121053Y70360D01*
X120971Y70285D01*
X120888Y70212D01*
X120802Y70142D01*
X120713Y70075D01*
X120622Y70012D01*
X120529Y69951D01*
X120434Y69894D01*
X120338Y69841D01*
X120239Y69790D01*
X120138Y69743D01*
X120036Y69700D01*
X119933Y69660D01*
X119828Y69624D01*
X119722Y69592D01*
X119615Y69563D01*
X119507Y69538D01*
X119398Y69517D01*
X119289Y69500D01*
X119179Y69486D01*
X119068Y69477D01*
X118958Y69471D01*
X118847Y69469D01*
X115672Y69469D01*
X130975Y80900D02*
X131079Y80898D01*
X131184Y80892D01*
X131288Y80883D01*
X131391Y80870D01*
X131494Y80852D01*
X131596Y80832D01*
X131698Y80807D01*
X131798Y80779D01*
X131898Y80747D01*
X131996Y80711D01*
X132093Y80672D01*
X132188Y80630D01*
X132282Y80584D01*
X132374Y80534D01*
X132464Y80482D01*
X132552Y80426D01*
X132638Y80366D01*
X132722Y80304D01*
X132803Y80239D01*
X132882Y80171D01*
X132959Y80099D01*
X133032Y80026D01*
X133104Y79949D01*
X133172Y79870D01*
X133237Y79789D01*
X133299Y79705D01*
X133359Y79619D01*
X133415Y79531D01*
X133467Y79441D01*
X133517Y79349D01*
X133563Y79255D01*
X133605Y79160D01*
X133644Y79063D01*
X133680Y78965D01*
X133712Y78865D01*
X133740Y78765D01*
X133765Y78663D01*
X133785Y78561D01*
X133803Y78458D01*
X133816Y78355D01*
X133825Y78251D01*
X133831Y78146D01*
X133833Y78042D01*
X130975Y80899D02*
X130857Y80897D01*
X130738Y80891D01*
X130620Y80882D01*
X130503Y80869D01*
X130386Y80851D01*
X130269Y80831D01*
X130153Y80806D01*
X130038Y80778D01*
X129925Y80745D01*
X129812Y80710D01*
X129700Y80670D01*
X129590Y80628D01*
X129481Y80581D01*
X129373Y80531D01*
X129268Y80478D01*
X129164Y80421D01*
X129062Y80361D01*
X128962Y80298D01*
X128864Y80231D01*
X128768Y80162D01*
X128675Y80089D01*
X128584Y80013D01*
X128495Y79935D01*
X128409Y79853D01*
X128326Y79769D01*
X128245Y79683D01*
X128168Y79593D01*
X128093Y79502D01*
X128021Y79408D01*
X127952Y79311D01*
X127887Y79213D01*
X127824Y79112D01*
X127765Y79009D01*
X127709Y78905D01*
X127657Y78799D01*
X127608Y78691D01*
X127563Y78582D01*
X127521Y78471D01*
X127483Y78359D01*
X132880Y75820D02*
X132956Y75895D01*
X133031Y75974D01*
X133102Y76055D01*
X133171Y76139D01*
X133236Y76225D01*
X133298Y76313D01*
X133358Y76403D01*
X133414Y76495D01*
X133467Y76590D01*
X133516Y76686D01*
X133562Y76784D01*
X133605Y76883D01*
X133644Y76984D01*
X133679Y77086D01*
X133711Y77189D01*
X133739Y77293D01*
X133764Y77398D01*
X133785Y77505D01*
X133802Y77611D01*
X133815Y77718D01*
X133824Y77826D01*
X133830Y77934D01*
X133832Y78042D01*
X132880Y75819D02*
X127483Y69469D01*
X133833Y69469D01*
D20*
X114300Y227330D02*
X114300Y229870D01*
D13*
X101981Y207899D02*
X90551Y207899D01*
X90551Y211074D01*
X90553Y211185D01*
X90559Y211295D01*
X90568Y211406D01*
X90582Y211516D01*
X90599Y211625D01*
X90620Y211734D01*
X90645Y211842D01*
X90674Y211949D01*
X90706Y212055D01*
X90742Y212160D01*
X90782Y212263D01*
X90825Y212365D01*
X90872Y212466D01*
X90923Y212565D01*
X90976Y212662D01*
X91033Y212756D01*
X91094Y212849D01*
X91157Y212940D01*
X91224Y213029D01*
X91294Y213115D01*
X91367Y213198D01*
X91442Y213280D01*
X91520Y213358D01*
X91602Y213433D01*
X91685Y213506D01*
X91771Y213576D01*
X91860Y213643D01*
X91951Y213706D01*
X92044Y213767D01*
X92139Y213824D01*
X92235Y213877D01*
X92334Y213928D01*
X92435Y213975D01*
X92537Y214018D01*
X92640Y214058D01*
X92745Y214094D01*
X92851Y214126D01*
X92958Y214155D01*
X93066Y214180D01*
X93175Y214201D01*
X93284Y214218D01*
X93394Y214232D01*
X93505Y214241D01*
X93615Y214247D01*
X93726Y214249D01*
X93837Y214247D01*
X93947Y214241D01*
X94058Y214232D01*
X94168Y214218D01*
X94277Y214201D01*
X94386Y214180D01*
X94494Y214155D01*
X94601Y214126D01*
X94707Y214094D01*
X94812Y214058D01*
X94915Y214018D01*
X95017Y213975D01*
X95118Y213928D01*
X95217Y213877D01*
X95314Y213824D01*
X95408Y213767D01*
X95501Y213706D01*
X95592Y213643D01*
X95681Y213576D01*
X95767Y213506D01*
X95850Y213433D01*
X95932Y213358D01*
X96010Y213280D01*
X96085Y213198D01*
X96158Y213115D01*
X96228Y213029D01*
X96295Y212940D01*
X96358Y212849D01*
X96419Y212756D01*
X96476Y212662D01*
X96529Y212565D01*
X96580Y212466D01*
X96627Y212365D01*
X96670Y212263D01*
X96710Y212160D01*
X96746Y212055D01*
X96778Y211949D01*
X96807Y211842D01*
X96832Y211734D01*
X96853Y211625D01*
X96870Y211516D01*
X96884Y211406D01*
X96893Y211295D01*
X96899Y211185D01*
X96901Y211074D01*
X96901Y207899D01*
X96901Y211709D02*
X101981Y214249D01*
X93091Y219246D02*
X90551Y222421D01*
X101981Y222421D01*
X101981Y219246D02*
X101981Y225596D01*
D20*
X190500Y153670D02*
X190500Y151130D01*
D13*
X178181Y131699D02*
X166751Y131699D01*
X166751Y134874D01*
X166753Y134985D01*
X166759Y135095D01*
X166768Y135206D01*
X166782Y135316D01*
X166799Y135425D01*
X166820Y135534D01*
X166845Y135642D01*
X166874Y135749D01*
X166906Y135855D01*
X166942Y135960D01*
X166982Y136063D01*
X167025Y136165D01*
X167072Y136266D01*
X167123Y136365D01*
X167176Y136462D01*
X167233Y136556D01*
X167294Y136649D01*
X167357Y136740D01*
X167424Y136829D01*
X167494Y136915D01*
X167567Y136998D01*
X167642Y137080D01*
X167720Y137158D01*
X167802Y137233D01*
X167885Y137306D01*
X167971Y137376D01*
X168060Y137443D01*
X168151Y137506D01*
X168244Y137567D01*
X168339Y137624D01*
X168435Y137677D01*
X168534Y137728D01*
X168635Y137775D01*
X168737Y137818D01*
X168840Y137858D01*
X168945Y137894D01*
X169051Y137926D01*
X169158Y137955D01*
X169266Y137980D01*
X169375Y138001D01*
X169484Y138018D01*
X169594Y138032D01*
X169705Y138041D01*
X169815Y138047D01*
X169926Y138049D01*
X170037Y138047D01*
X170147Y138041D01*
X170258Y138032D01*
X170368Y138018D01*
X170477Y138001D01*
X170586Y137980D01*
X170694Y137955D01*
X170801Y137926D01*
X170907Y137894D01*
X171012Y137858D01*
X171115Y137818D01*
X171217Y137775D01*
X171318Y137728D01*
X171417Y137677D01*
X171514Y137624D01*
X171608Y137567D01*
X171701Y137506D01*
X171792Y137443D01*
X171881Y137376D01*
X171967Y137306D01*
X172050Y137233D01*
X172132Y137158D01*
X172210Y137080D01*
X172285Y136998D01*
X172358Y136915D01*
X172428Y136829D01*
X172495Y136740D01*
X172558Y136649D01*
X172619Y136556D01*
X172676Y136462D01*
X172729Y136365D01*
X172780Y136266D01*
X172827Y136165D01*
X172870Y136063D01*
X172910Y135960D01*
X172946Y135855D01*
X172978Y135749D01*
X173007Y135642D01*
X173032Y135534D01*
X173053Y135425D01*
X173070Y135316D01*
X173084Y135206D01*
X173093Y135095D01*
X173099Y134985D01*
X173101Y134874D01*
X173101Y131699D01*
X173101Y135509D02*
X178181Y138049D01*
X169609Y149397D02*
X169505Y149395D01*
X169400Y149389D01*
X169296Y149380D01*
X169193Y149367D01*
X169090Y149349D01*
X168988Y149329D01*
X168886Y149304D01*
X168786Y149276D01*
X168686Y149244D01*
X168588Y149208D01*
X168491Y149169D01*
X168396Y149127D01*
X168302Y149081D01*
X168210Y149031D01*
X168120Y148979D01*
X168032Y148923D01*
X167946Y148863D01*
X167862Y148801D01*
X167781Y148736D01*
X167702Y148668D01*
X167625Y148596D01*
X167552Y148523D01*
X167480Y148446D01*
X167412Y148367D01*
X167347Y148286D01*
X167285Y148202D01*
X167225Y148116D01*
X167169Y148028D01*
X167117Y147938D01*
X167067Y147846D01*
X167021Y147752D01*
X166979Y147657D01*
X166940Y147560D01*
X166904Y147462D01*
X166872Y147362D01*
X166844Y147262D01*
X166819Y147160D01*
X166799Y147058D01*
X166781Y146955D01*
X166768Y146852D01*
X166759Y146748D01*
X166753Y146643D01*
X166751Y146539D01*
X166753Y146421D01*
X166759Y146302D01*
X166768Y146184D01*
X166781Y146067D01*
X166799Y145950D01*
X166819Y145833D01*
X166844Y145717D01*
X166872Y145602D01*
X166905Y145489D01*
X166940Y145376D01*
X166980Y145264D01*
X167022Y145154D01*
X167069Y145045D01*
X167119Y144937D01*
X167172Y144832D01*
X167229Y144728D01*
X167289Y144626D01*
X167352Y144526D01*
X167419Y144428D01*
X167488Y144332D01*
X167561Y144239D01*
X167637Y144148D01*
X167715Y144059D01*
X167797Y143973D01*
X167881Y143890D01*
X167967Y143809D01*
X168057Y143732D01*
X168148Y143657D01*
X168242Y143585D01*
X168339Y143516D01*
X168437Y143451D01*
X168538Y143388D01*
X168641Y143329D01*
X168745Y143273D01*
X168851Y143221D01*
X168959Y143172D01*
X169068Y143127D01*
X169179Y143085D01*
X169291Y143047D01*
X171831Y148444D02*
X171756Y148520D01*
X171677Y148595D01*
X171596Y148666D01*
X171512Y148735D01*
X171426Y148800D01*
X171338Y148862D01*
X171248Y148922D01*
X171156Y148978D01*
X171061Y149031D01*
X170965Y149080D01*
X170867Y149126D01*
X170768Y149169D01*
X170667Y149208D01*
X170565Y149243D01*
X170462Y149275D01*
X170358Y149303D01*
X170253Y149328D01*
X170146Y149349D01*
X170040Y149366D01*
X169933Y149379D01*
X169825Y149388D01*
X169717Y149394D01*
X169609Y149396D01*
X171831Y148444D02*
X178181Y143046D01*
X178181Y149396D01*
D20*
X227330Y63500D02*
X229870Y63500D01*
D13*
X207899Y75819D02*
X207899Y87249D01*
X211074Y87249D01*
X211185Y87247D01*
X211295Y87241D01*
X211406Y87232D01*
X211516Y87218D01*
X211625Y87201D01*
X211734Y87180D01*
X211842Y87155D01*
X211949Y87126D01*
X212055Y87094D01*
X212160Y87058D01*
X212263Y87018D01*
X212365Y86975D01*
X212466Y86928D01*
X212565Y86877D01*
X212662Y86824D01*
X212756Y86767D01*
X212849Y86706D01*
X212940Y86643D01*
X213029Y86576D01*
X213115Y86506D01*
X213198Y86433D01*
X213280Y86358D01*
X213358Y86280D01*
X213433Y86198D01*
X213506Y86115D01*
X213576Y86029D01*
X213643Y85940D01*
X213706Y85849D01*
X213767Y85756D01*
X213824Y85661D01*
X213877Y85565D01*
X213928Y85466D01*
X213975Y85365D01*
X214018Y85263D01*
X214058Y85160D01*
X214094Y85055D01*
X214126Y84949D01*
X214155Y84842D01*
X214180Y84734D01*
X214201Y84625D01*
X214218Y84516D01*
X214232Y84406D01*
X214241Y84295D01*
X214247Y84185D01*
X214249Y84074D01*
X214247Y83963D01*
X214241Y83853D01*
X214232Y83742D01*
X214218Y83632D01*
X214201Y83523D01*
X214180Y83414D01*
X214155Y83306D01*
X214126Y83199D01*
X214094Y83093D01*
X214058Y82988D01*
X214018Y82885D01*
X213975Y82783D01*
X213928Y82682D01*
X213877Y82583D01*
X213824Y82486D01*
X213767Y82392D01*
X213706Y82299D01*
X213643Y82208D01*
X213576Y82119D01*
X213506Y82033D01*
X213433Y81950D01*
X213358Y81868D01*
X213280Y81790D01*
X213198Y81715D01*
X213115Y81642D01*
X213029Y81572D01*
X212940Y81505D01*
X212849Y81442D01*
X212756Y81381D01*
X212661Y81324D01*
X212565Y81271D01*
X212466Y81220D01*
X212365Y81173D01*
X212263Y81130D01*
X212160Y81090D01*
X212055Y81054D01*
X211949Y81022D01*
X211842Y80993D01*
X211734Y80968D01*
X211625Y80947D01*
X211516Y80930D01*
X211406Y80916D01*
X211295Y80907D01*
X211185Y80901D01*
X211074Y80899D01*
X207899Y80899D01*
X211709Y80899D02*
X214249Y75819D01*
X219246Y75819D02*
X222421Y75819D01*
X222532Y75821D01*
X222642Y75827D01*
X222753Y75836D01*
X222863Y75850D01*
X222972Y75867D01*
X223081Y75888D01*
X223189Y75913D01*
X223296Y75942D01*
X223402Y75974D01*
X223507Y76010D01*
X223610Y76050D01*
X223712Y76093D01*
X223813Y76140D01*
X223912Y76191D01*
X224008Y76244D01*
X224103Y76301D01*
X224196Y76362D01*
X224287Y76425D01*
X224376Y76492D01*
X224462Y76562D01*
X224545Y76635D01*
X224627Y76710D01*
X224705Y76788D01*
X224780Y76870D01*
X224853Y76953D01*
X224923Y77039D01*
X224990Y77128D01*
X225053Y77219D01*
X225114Y77312D01*
X225171Y77406D01*
X225224Y77503D01*
X225275Y77602D01*
X225322Y77703D01*
X225365Y77805D01*
X225405Y77908D01*
X225441Y78013D01*
X225473Y78119D01*
X225502Y78226D01*
X225527Y78334D01*
X225548Y78443D01*
X225565Y78552D01*
X225579Y78662D01*
X225588Y78773D01*
X225594Y78883D01*
X225596Y78994D01*
X225594Y79105D01*
X225588Y79215D01*
X225579Y79326D01*
X225565Y79436D01*
X225548Y79545D01*
X225527Y79654D01*
X225502Y79762D01*
X225473Y79869D01*
X225441Y79975D01*
X225405Y80080D01*
X225365Y80183D01*
X225322Y80285D01*
X225275Y80386D01*
X225224Y80485D01*
X225171Y80581D01*
X225114Y80676D01*
X225053Y80769D01*
X224990Y80860D01*
X224923Y80949D01*
X224853Y81035D01*
X224780Y81118D01*
X224705Y81200D01*
X224627Y81278D01*
X224545Y81353D01*
X224462Y81426D01*
X224376Y81496D01*
X224287Y81563D01*
X224196Y81626D01*
X224103Y81687D01*
X224009Y81744D01*
X223912Y81797D01*
X223813Y81848D01*
X223712Y81895D01*
X223610Y81938D01*
X223507Y81978D01*
X223402Y82014D01*
X223296Y82046D01*
X223189Y82075D01*
X223081Y82100D01*
X222972Y82121D01*
X222863Y82138D01*
X222753Y82152D01*
X222642Y82161D01*
X222532Y82167D01*
X222421Y82169D01*
X223056Y87249D02*
X219246Y87249D01*
X223056Y87249D02*
X223156Y87247D01*
X223255Y87241D01*
X223355Y87231D01*
X223453Y87218D01*
X223552Y87200D01*
X223649Y87179D01*
X223745Y87154D01*
X223841Y87125D01*
X223935Y87092D01*
X224028Y87056D01*
X224119Y87016D01*
X224209Y86972D01*
X224297Y86925D01*
X224383Y86875D01*
X224467Y86821D01*
X224549Y86764D01*
X224628Y86704D01*
X224706Y86640D01*
X224780Y86574D01*
X224852Y86505D01*
X224921Y86433D01*
X224987Y86359D01*
X225051Y86281D01*
X225111Y86202D01*
X225168Y86120D01*
X225222Y86036D01*
X225272Y85950D01*
X225319Y85862D01*
X225363Y85772D01*
X225403Y85681D01*
X225439Y85588D01*
X225472Y85494D01*
X225501Y85398D01*
X225526Y85302D01*
X225547Y85205D01*
X225565Y85106D01*
X225578Y85008D01*
X225588Y84908D01*
X225594Y84809D01*
X225596Y84709D01*
X225594Y84609D01*
X225588Y84510D01*
X225578Y84410D01*
X225565Y84312D01*
X225547Y84213D01*
X225526Y84116D01*
X225501Y84020D01*
X225472Y83924D01*
X225439Y83830D01*
X225403Y83737D01*
X225363Y83646D01*
X225319Y83556D01*
X225272Y83468D01*
X225222Y83382D01*
X225168Y83298D01*
X225111Y83216D01*
X225051Y83137D01*
X224987Y83059D01*
X224921Y82985D01*
X224852Y82913D01*
X224780Y82844D01*
X224706Y82778D01*
X224628Y82714D01*
X224549Y82654D01*
X224467Y82597D01*
X224383Y82543D01*
X224297Y82493D01*
X224209Y82446D01*
X224119Y82402D01*
X224028Y82362D01*
X223935Y82326D01*
X223841Y82293D01*
X223745Y82264D01*
X223649Y82239D01*
X223552Y82218D01*
X223453Y82200D01*
X223355Y82187D01*
X223255Y82177D01*
X223156Y82171D01*
X223056Y82169D01*
X220516Y82169D01*
D20*
X166370Y63500D02*
X163830Y63500D01*
D13*
X144399Y75819D02*
X144399Y87249D01*
X147574Y87249D01*
X147685Y87247D01*
X147795Y87241D01*
X147906Y87232D01*
X148016Y87218D01*
X148125Y87201D01*
X148234Y87180D01*
X148342Y87155D01*
X148449Y87126D01*
X148555Y87094D01*
X148660Y87058D01*
X148763Y87018D01*
X148865Y86975D01*
X148966Y86928D01*
X149065Y86877D01*
X149162Y86824D01*
X149256Y86767D01*
X149349Y86706D01*
X149440Y86643D01*
X149529Y86576D01*
X149615Y86506D01*
X149698Y86433D01*
X149780Y86358D01*
X149858Y86280D01*
X149933Y86198D01*
X150006Y86115D01*
X150076Y86029D01*
X150143Y85940D01*
X150206Y85849D01*
X150267Y85756D01*
X150324Y85661D01*
X150377Y85565D01*
X150428Y85466D01*
X150475Y85365D01*
X150518Y85263D01*
X150558Y85160D01*
X150594Y85055D01*
X150626Y84949D01*
X150655Y84842D01*
X150680Y84734D01*
X150701Y84625D01*
X150718Y84516D01*
X150732Y84406D01*
X150741Y84295D01*
X150747Y84185D01*
X150749Y84074D01*
X150747Y83963D01*
X150741Y83853D01*
X150732Y83742D01*
X150718Y83632D01*
X150701Y83523D01*
X150680Y83414D01*
X150655Y83306D01*
X150626Y83199D01*
X150594Y83093D01*
X150558Y82988D01*
X150518Y82885D01*
X150475Y82783D01*
X150428Y82682D01*
X150377Y82583D01*
X150324Y82486D01*
X150267Y82392D01*
X150206Y82299D01*
X150143Y82208D01*
X150076Y82119D01*
X150006Y82033D01*
X149933Y81950D01*
X149858Y81868D01*
X149780Y81790D01*
X149698Y81715D01*
X149615Y81642D01*
X149529Y81572D01*
X149440Y81505D01*
X149349Y81442D01*
X149256Y81381D01*
X149161Y81324D01*
X149065Y81271D01*
X148966Y81220D01*
X148865Y81173D01*
X148763Y81130D01*
X148660Y81090D01*
X148555Y81054D01*
X148449Y81022D01*
X148342Y80993D01*
X148234Y80968D01*
X148125Y80947D01*
X148016Y80930D01*
X147906Y80916D01*
X147795Y80907D01*
X147685Y80901D01*
X147574Y80899D01*
X144399Y80899D01*
X148209Y80899D02*
X150749Y75819D01*
X155746Y78359D02*
X158286Y87249D01*
X155746Y78359D02*
X162096Y78359D01*
X160191Y80899D02*
X160191Y75819D01*
D10*
X281940Y76200D02*
X281940Y68580D01*
X300990Y68580D01*
X302260Y67310D01*
X304800Y64770D01*
X307340Y67310D01*
X308610Y68580D01*
X302260Y29210D02*
X302260Y27940D01*
X281940Y27940D01*
X302260Y29210D02*
X307340Y29210D01*
X307340Y27940D01*
X327660Y27940D01*
X327660Y68580D02*
X308610Y68580D01*
X327660Y68580D02*
X327660Y76200D01*
X281940Y68580D02*
X281940Y35560D01*
X281940Y33020D02*
X281940Y27940D01*
X281940Y33020D02*
X285750Y33020D01*
X327660Y33020D02*
X327660Y27940D01*
X327660Y33020D02*
X323850Y33020D01*
X327660Y35560D02*
X327660Y68580D01*
X323850Y35560D02*
X323850Y33020D01*
X323850Y38100D02*
X311150Y38100D01*
X298450Y35560D02*
X298450Y33020D01*
X285750Y33020D02*
X285750Y35560D01*
X285750Y38100D02*
X298450Y38100D01*
X298450Y33020D02*
X311150Y33020D01*
X298450Y35560D02*
X298450Y38100D01*
X311150Y35560D02*
X311150Y33020D01*
X311150Y35560D02*
X311150Y38100D01*
X311150Y35560D02*
X307340Y35560D01*
X307340Y67310D01*
X302260Y35560D02*
X298450Y35560D01*
X302260Y35560D02*
X307340Y35560D01*
X302260Y35560D02*
X302260Y67310D01*
X323850Y35560D02*
X327660Y35560D01*
X323850Y35560D02*
X323850Y38100D01*
X327660Y35560D02*
X327660Y33020D01*
X285750Y35560D02*
X281940Y35560D01*
X285750Y35560D02*
X285750Y38100D01*
X281940Y35560D02*
X281940Y33020D01*
X281940Y76200D02*
X289560Y76200D01*
X289560Y77470D01*
X294640Y77470D02*
X294640Y76200D01*
X294640Y77470D02*
X289560Y77470D01*
X314960Y77470D02*
X314960Y76200D01*
X320040Y76200D02*
X327660Y76200D01*
X320040Y76200D02*
X320040Y77470D01*
X314960Y77470D01*
X307340Y76200D02*
X307340Y74930D01*
X307340Y76200D02*
X314960Y76200D01*
X307340Y74930D02*
X302260Y74930D01*
X302260Y76200D01*
X294640Y76200D01*
D13*
X287909Y63232D02*
X289828Y60833D01*
X287909Y63232D02*
X296545Y63232D01*
X296545Y60833D02*
X296545Y65631D01*
X286385Y80899D02*
X286485Y80901D01*
X286584Y80907D01*
X286684Y80917D01*
X286782Y80930D01*
X286881Y80948D01*
X286978Y80969D01*
X287074Y80994D01*
X287170Y81023D01*
X287264Y81056D01*
X287357Y81092D01*
X287448Y81132D01*
X287538Y81176D01*
X287626Y81223D01*
X287712Y81273D01*
X287796Y81327D01*
X287878Y81384D01*
X287957Y81444D01*
X288035Y81508D01*
X288109Y81574D01*
X288181Y81643D01*
X288250Y81715D01*
X288316Y81789D01*
X288380Y81867D01*
X288440Y81946D01*
X288497Y82028D01*
X288551Y82112D01*
X288601Y82198D01*
X288648Y82286D01*
X288692Y82376D01*
X288732Y82467D01*
X288768Y82560D01*
X288801Y82654D01*
X288830Y82750D01*
X288855Y82846D01*
X288876Y82943D01*
X288894Y83042D01*
X288907Y83140D01*
X288917Y83240D01*
X288923Y83339D01*
X288925Y83439D01*
X286385Y80899D02*
X286244Y80901D01*
X286103Y80906D01*
X285962Y80916D01*
X285821Y80929D01*
X285681Y80945D01*
X285541Y80966D01*
X285402Y80990D01*
X285263Y81018D01*
X285126Y81049D01*
X284989Y81084D01*
X284853Y81122D01*
X284718Y81164D01*
X284585Y81210D01*
X284452Y81259D01*
X284321Y81312D01*
X284192Y81368D01*
X284063Y81427D01*
X283937Y81490D01*
X283812Y81556D01*
X283689Y81625D01*
X283568Y81698D01*
X283449Y81774D01*
X283331Y81853D01*
X283216Y81934D01*
X283104Y82019D01*
X282993Y82107D01*
X282885Y82198D01*
X282779Y82291D01*
X282676Y82388D01*
X282575Y82487D01*
X282893Y89789D02*
X282895Y89889D01*
X282901Y89988D01*
X282911Y90088D01*
X282924Y90186D01*
X282942Y90285D01*
X282963Y90382D01*
X282988Y90478D01*
X283017Y90574D01*
X283050Y90668D01*
X283086Y90761D01*
X283126Y90852D01*
X283170Y90942D01*
X283217Y91030D01*
X283267Y91116D01*
X283321Y91200D01*
X283378Y91282D01*
X283438Y91361D01*
X283502Y91439D01*
X283568Y91513D01*
X283637Y91585D01*
X283709Y91654D01*
X283783Y91720D01*
X283861Y91784D01*
X283940Y91844D01*
X284022Y91901D01*
X284106Y91955D01*
X284192Y92005D01*
X284280Y92052D01*
X284370Y92096D01*
X284461Y92136D01*
X284554Y92172D01*
X284648Y92205D01*
X284744Y92234D01*
X284840Y92259D01*
X284937Y92280D01*
X285036Y92298D01*
X285134Y92311D01*
X285234Y92321D01*
X285333Y92327D01*
X285433Y92329D01*
X285433Y92330D02*
X285566Y92328D01*
X285699Y92323D01*
X285832Y92313D01*
X285965Y92300D01*
X286097Y92283D01*
X286229Y92263D01*
X286360Y92239D01*
X286490Y92211D01*
X286620Y92180D01*
X286748Y92145D01*
X286876Y92106D01*
X287002Y92064D01*
X287127Y92018D01*
X287251Y91969D01*
X287374Y91917D01*
X287495Y91861D01*
X287614Y91801D01*
X287732Y91739D01*
X287847Y91673D01*
X287961Y91604D01*
X288073Y91531D01*
X288183Y91456D01*
X288291Y91377D01*
X284162Y87566D02*
X284078Y87618D01*
X283995Y87673D01*
X283915Y87732D01*
X283837Y87793D01*
X283762Y87857D01*
X283689Y87925D01*
X283618Y87995D01*
X283551Y88067D01*
X283486Y88142D01*
X283424Y88220D01*
X283365Y88300D01*
X283309Y88382D01*
X283257Y88466D01*
X283208Y88552D01*
X283162Y88640D01*
X283119Y88730D01*
X283080Y88821D01*
X283045Y88914D01*
X283013Y89008D01*
X282985Y89103D01*
X282960Y89199D01*
X282940Y89296D01*
X282922Y89394D01*
X282909Y89492D01*
X282900Y89591D01*
X282894Y89690D01*
X282892Y89789D01*
X287655Y85662D02*
X287739Y85610D01*
X287822Y85555D01*
X287902Y85496D01*
X287980Y85435D01*
X288055Y85371D01*
X288128Y85303D01*
X288199Y85233D01*
X288266Y85161D01*
X288331Y85086D01*
X288393Y85008D01*
X288452Y84928D01*
X288508Y84846D01*
X288560Y84762D01*
X288609Y84676D01*
X288655Y84588D01*
X288698Y84498D01*
X288737Y84407D01*
X288772Y84314D01*
X288804Y84220D01*
X288832Y84125D01*
X288857Y84029D01*
X288877Y83932D01*
X288895Y83834D01*
X288908Y83736D01*
X288917Y83637D01*
X288923Y83538D01*
X288925Y83439D01*
X287655Y85662D02*
X284163Y87567D01*
X294030Y92329D02*
X294030Y80899D01*
X299110Y80899D01*
X303530Y89789D02*
X306705Y92329D01*
X306705Y80899D01*
X303530Y80899D02*
X309880Y80899D01*
M02*
