M48
;GenerationSoftware,Autodesk,EAGLE,9.6.2*%
;CreationDate,2022-04-17T18:15:07Z*%
FMAT,2
ICI,OFF
METRIC,TZ,000.000
T3C0.813
T2C0.914
T1C1.118
%
G90
M71
T1
X3810Y34290
X29210Y34290
X41910Y5080
X41910Y30480
T2
X29210Y5080
X31750Y5080
T3
X24130Y16510
X26670Y16510
X26670Y24130
X24130Y24130
X29210Y16510
X31750Y16510
X29210Y24130
X31750Y24130
X5080Y13970
X7620Y13970
X5080Y6350
X7620Y6350
X11430Y21590
X11430Y24130
X19050Y13970
X19050Y16510
X21590Y6350
X24130Y6350
X15240Y6350
X17780Y6350
M30